<?xml version="1.0" encoding="UTF-8" standalone="no"?>
<svg
   version="1.2"
   viewBox="-202.99711 -98 473.56149 473.29667"
   width="100"
   height="100"
   id="svg1"
   xml:space="preserve"
   xmlns="http://www.w3.org/2000/svg"
   xmlns:svg="http://www.w3.org/2000/svg"
   xmlns:rdf="http://www.w3.org/1999/02/22-rdf-syntax-ns#"
   xmlns:cc="http://creativecommons.org/ns#"
   xmlns:dc="http://purl.org/dc/elements/1.1/"><defs
     id="defs1" /><title
     id="title1">pieces</title><style
     id="style1">
		.s0 { fill: #060705 } 
	</style><g
     id="Layer 1"
     transform="translate(1.4349111,-594.05321)"><g
       id="Background"><path
         id="Path 1"
         fill-rule="evenodd"
         class="s0"
         d="m 1464.6039,-19.594016 c 9.8,0.3 15.5,1 23,3 5.5,1.4 13.8,4.3 18.5,6.3 4.8,2.1 12.5,6.4 17.5,9.7 5.4,3.6 13.3,10.199998 20,16.899998 7.1,7.1 13.5,14.7 17.7,21.1 3.7,5.5 8.6,14.3 11.1,19.5 2.4,5.2 5.6,13.1 7,17.5 1.5,4.4 3.5,11.8 4.6,16.5 1.1,4.7 2.4,13.699998 3,19.999998 0.6,6.3 1.1,16.9 1.1,23.5 0,6.6 -0.7,17.6 -1.6,24.5 -0.8,6.9 -2.5,17.7 -3.8,24 -1.3,6.3 -4.3,18.7 -11,43.5 l -7.6,3.7 c -4.1,2 -10,5.6 -13,8 -3.1,2.4 -7.8,7.4 -15.5,17.7 l -5.2,-10.7 c -2.9,-5.9 -7.6,-13.8 -10.5,-17.7 -2.9,-3.8 -10.6,-12.4 -17.1,-19 -6.5,-6.6 -11.8,-12.3 -11.8,-12.7 0.1,-0.5 -0.3,-0.8 -0.7,-0.8 -0.4,0 -1.6,1.4 -2.7,3.2 -1,1.8 -6.9,8.5 -13,14.8 -6.1,6.3 -13.3,14.4 -15.9,18 -2.7,3.6 -6,8.5 -7.5,11 -1.4,2.5 -6.8,6.6 -6.8,16.5 0,0 -2.6,-4.4 -2.6,-4.5 0,-2.8 -4.9,-6.8 -7.9,-9.6 -2.9,-2.8 -8.5,-7.1 -12.3,-9.7 -3.9,-2.5 -9.7,-5.5 -13,-6.8 -3.3,-1.2 -6.2,-2.3 -6.3,-2.3 -0.2,-0.1 0.6,-3.7 1.7,-8.1 1.1,-4.4 2.7,-9.8 3.6,-12 0.9,-2.2 3.5,-7.6 5.7,-12 2.2,-4.4 6.5,-11.8 9.5,-16.5 3.1,-4.7 13.5,-19.7 23.2,-33.5 9.8,-13.7 19.8,-27.9 22.5,-31.5 2.6,-3.6 5.3,-8.7 6.1,-11.5 0.8,-2.699998 1.4,-7.199998 1.4,-9.999998 -0.1,-2.7 -0.5,-6.3 -0.8,-8 -0.5,-2.5 -0.8,-1.8 -1.9,4.5 -0.7,4.1 -2.4,10.4 -3.7,13.999998 -1.5,4.1 -4.2,8.4 -7.2,11.9 -3.3,3.6 -6.9,6.3 -11.3,8.4 -3.6,1.6 -13.5,4.7 -22,6.9 -9.7,2.4 -16.9,4.8 -19.3,6.3 -2,1.4 -5.1,4.4 -6.8,6.8 -1.7,2.3 -4.4,6.8 -6,10 -1.6,3.1 -4.2,7.2 -5.8,9 -1.8666,2.13333 -4.1,3.43333 -6.7,3.9 -2.2,0.4 -6.6,0.2 -9.9,-0.3 -3.3,-0.6 -8.4,-2.1 -11.3,-3.5 -3.4,-1.6 -6.1,-3.7 -7.7,-6.1 -1.3,-2.1 -3.2,-5.8 -4,-8.3 -0.9,-2.5 -1.9,-6.7 -2.2,-9.5 -0.7,-4.9 -0.5,-5.3 8.4,-20.5 4.9,-8.5 11.5,-20.199998 14.6,-25.999998 3,-5.8 8.1,-16.3 11.2,-23.5 3.1,-7.1 7.1,-15.5 8.9,-18.5 1.8,-3 5.6,-7.5 8.3,-10 2.7,-2.5 7.1,-5.6 9.8,-7 2.8,-1.4 5.2,-2.6 5.5,-2.7 0.2,-0.1 -1.1,-1.9 -3,-4 -1.8,-2.1 -4.2,-5.6 -5.2,-7.8 -1,-2.2 -1.8,-5.9 -1.8,-8.2 0,-2.4 0.6,-5.799998 1.3,-7.499998 0.8,-1.8 3,-4.8 5,-6.5 2,-1.8 5.8,-4.4 8.4,-5.7 2.6,-1.3 7.9,-3.3 11.8,-4.5 3.8,-1.2 9.7,-2.5 13,-3.1 3.3,-0.5 11.8,-0.7 19,-0.5 z m 448.6518,21.60349 0.2,13.999998 c 0.1,7.7 0.5,15 0.8,16.3 0.5,2.1 0.9,2.2 11.5,2.2 10,0 11.1,-0.2 12,-2 0.5,-1.1 0.9,-8.3 0.6,-30.199998 l 25.9,-0.3 c 14.3,-0.2 26.8,-0.2 27.7,0 1.6,0.5 1.7,1.9 1.5,15.399998 -0.2,11.2 0.1,15.3 1.1,16.3 0.9,0.9 4.1,1.2 11,1.1 6.3,-0.1 10.1,-0.7 11,-1.5 0.9,-1 1.2,-5.4 1.2,-31.799998 h 29 v 34.499998 c 0,29.3 -0.3,34.7 -1.5,36 -0.9,0.8 -2.5,1.7 -3.8,2 -1.2,0.3 -36.1,0.4 -77.4,0.3 -70.8,-0.3 -75.4,-0.4 -77,-2.1 -1.6,-1.6 -1.9,-5.2 -2.8,-34.5 -0.5,-18 -0.6,-33.499998 -0.2,-34.499998 0.6,-1.6 2,-1.7 29.2,-1.2 z m 539.4377,22.152198 c 2.2,-0.1 6.7,0.3 10,0.9 3.3,0.5 8.9,2.1 12.5,3.5 3.5,1.4 9,4.5 12.1,6.8 3.2,2.3 7.9,6.9 10.5,10.2 2.7,3.3 5.9,8.3 7.1,11 1.2,2.8 2.9,8.2 3.8,12 1.2,4.9 1.5,9.4 1.1,15 -0.3,4.6 -1.5,10.8 -2.8,14.5 -1.3,3.599998 -3.8,8.799998 -5.5,11.499998 -1.8,2.8 -5.4,7.1 -8,9.7 -2.7,2.6 -7.5,6.3 -10.8,8.3 -3.3,2 -9.2,4.6 -13,5.7 -5,1.6 -9.6,2.2 -16,2.2 -6.4,0 -11,-0.6 -16,-2.2 -3.9,-1.2 -9.9,-3.8 -13.4,-5.9 -3.5,-2.1 -8.9,-6.5 -12,-9.8 -3.1,-3.3 -7.1,-9 -8.9,-12.5 -1.7,-3.6 -3.9,-10.099998 -4.8,-14.499998 -1,-5.3 -1.4,-10.3 -1,-15 0.3,-3.8 1.3,-9.2 2.1,-12 0.9,-2.7 3,-7.7 4.8,-11 1.7,-3.3 5.9,-8.7 9.2,-12 3.9,-3.9 8.6,-7.3 13.5,-9.7 4.1,-2.1 10.6,-4.4 14.5,-5.2 3.8,-0.8 8.8,-1.5 11,-1.5 z m -486.6377,58.3478 c 48.1,0 61.4,0.2 62.4,1.2 0.7,0.7 1.3,3.1 1.3,5.3 0.1,2.5 -0.6,4.6 -1.6,5.5 -0.9,0.8 -2.6,3.3 -3.7,5.499998 -1.9,3.9 -1.9,4.3 -0.2,18.5 0.9,8 3.4,24.9 5.5,37.5 2.1,12.7 5.5,30.7 7.5,40 2.1,9.4 4,17.9 4.2,19 0.4,1.5 -0.7,2.9 -4.4,5.7 -2.6,2 -6.4,5.4 -8.4,7.5 -2,2.1 -5.2,6.1 -7.2,8.8 -1.9,2.8 -4.9,7.6 -9.7,16.5 l -3.9,-7.7 c -2.1,-4.3 -5.4,-10.3 -7.3,-13.3 -1.9,-3 -5.2,-7.5 -7.3,-10 -2,-2.5 -9.2,-10 -28,-29.1 l -2,2.8 c -1.1,1.5 -6.7,7.8 -12.5,13.8 -5.8,6.1 -12.9,14.2 -15.8,18 -2.8,3.9 -7,10.8 -13.5,24 l -3.4,-6.5 c -1.9,-3.6 -5.1,-8.7 -7.2,-11.5 -2.1,-2.7 -6.9,-7.6 -17.6,-16.5 l 2.2,-9.3 c 1.2,-5 3.3,-15.3 4.6,-22.7 1.4,-7.4 3.4,-20.9 4.6,-30 1.1,-9.1 2.5,-22.6 3,-30 0.6,-7.4 1.1,-16.1 1.1,-19.2 0,-4.2 -0.7,-7.099998 -2.5,-10.499998 -1.4,-2.7 -2.5,-6 -2.5,-7.5 0,-1.6 0.2,-3.5 0.6,-4.3 0.5,-1.3 8.3,-1.5 61.7,-1.5 z m 486.1377,57.752198 c 11.8,-0.1 28.4,0.3 37,0.7 11.1,0.6 16.4,1.3 18.7,2.5 1.8,0.9 3.7,2.7 4.3,4.1 0.5,1.4 1,3.5 1,4.8 0,1.5 -2.8,4.8 -8.5,10.2 -7.2,6.8 -8.6,8.6 -9.1,12 -0.3,2.3 0.1,6.9 1,11 0.9,3.9 3.4,10.6 5.6,15 2.1,4.4 9.1,15 15.4,23.5 6.4,8.5 13.3,19.1 15.5,23.5 2.1,4.4 4.7,10.9 5.6,14.5 1.1,4.3 1.5,8.9 1.2,13.5 -0.2,4.2 -1.3,9 -2.6,12 -1.2,2.8 -3.4,6.3 -4.9,7.8 -1.5,1.6 -4.9,4 -7.5,5.3 -2.6,1.3 -6.9,2.9 -9.5,3.5 -3,0.6 -25.3,1 -62,1 -56.4,-0.1 -57.3,-0.1 -63,-2.3 -3.6,-1.4 -7.5,-3.9 -10.3,-6.7 -3.1,-3 -5.4,-6.6 -6.8,-10.3 -1.3,-3.6 -2.1,-8.1 -2.1,-12 0,-3.5 0.6,-9 1.5,-12.3 0.8,-3.3 3.3,-9.6 5.4,-14 2.2,-4.4 8.5,-14.3 14,-22 5.5,-7.7 11.4,-16.5 13.3,-19.5 1.8,-3 4.3,-8.4 5.6,-12 1.3,-3.6 2.8,-9.1 3.3,-12.2 0.7,-4.8 0.6,-6.5 -0.9,-10 -1.1,-2.6 -3.7,-5.7 -6.3,-7.7 -2.4,-1.9 -5.9,-4.8 -7.7,-6.5 -2,-1.9 -3.3,-4.1 -3.3,-5.6 0.1,-1.4 0.7,-3.5 1.6,-4.7 0.8,-1.3 2.9,-3.1 4.7,-4 2.3,-1.1 7.1,-1.9 15.8,-2.3 6.8,-0.4 22.1,-0.7 34,-0.8 z m -485.1377,66.8478 c 1.2,0.8 5.7,4.9 10.1,9.2 4.3,4.2 10.4,11.1 13.5,15.2 3.1,4.1 7.5,11.3 9.8,16 2.2,4.7 4.8,11.2 5.7,14.5 0.8,3.3 1.5,9.4 1.5,13.5 0,4.1 -0.6,10 -1.4,13 -0.8,3 -2.7,8 -4.2,11 -1.5,3 -4.1,7 -5.8,8.9 -1.7,1.9 -6,6 -16,14.8 l 34.5,0.7 c 18.9,0.4 36.9,1.2 40,1.7 3,0.6 7.7,2.3 10.4,3.8 2.7,1.4 6.6,4.6 8.7,7.1 2.2,2.5 4.6,6.5 5.4,9 0.8,2.5 1.5,7.7 1.5,11.5 0,4.2 -0.5,7.5 -1.2,8.3 -1,0.9 -24.9,1.2 -112.8,1.2 -103.3,0.1 -111.6,0 -113,-1.6 -1.2,-1.3 -1.4,-3.4 -1,-9.8 0.4,-5.9 1.3,-9.6 3.3,-13.8 1.9,-4.1 4.1,-6.9 7.4,-9.3 2.6,-2 7.2,-4.6 10.3,-5.8 5.2,-2 7.6,-2.2 79.2,-3.2 l -4.4,-3.1 c -2.4,-1.7 -7.3,-6 -10.9,-9.5 -5.2,-5 -7.1,-7.8 -9.3,-13.1 -1.4,-3.8 -3.2,-10.1 -3.8,-14 -1,-6.1 -0.9,-8.7 0.5,-15.8 0.9,-4.7 2.9,-11.6 4.5,-15.5 1.5,-3.8 4.5,-9.7 6.6,-13 2.1,-3.3 5.9,-8.5 8.4,-11.5 2.5,-3 8.1,-9.2 12.5,-13.7 7.5,-7.8 8,-8.1 10,-6.7 z m -476.3518,1.79651 c 0.5,0 5.2,4.4 10.5,9.7 5.2,5.4 11.4,12.3 13.6,15.3 2.3,3 5.9,8.9 8.1,13 2.1,4.1 4.7,11.1 5.7,15.5 1.3,5.9 1.6,10.9 1.3,19 -0.3,9.7 -0.7,11.8 -3.4,17.5 -1.7,3.6 -4.8,8.5 -7,10.9 -2.2,2.4 -7.1,6.6 -17.9,14.6 l 72,1 6.4,3 c 4.2,2 8.1,4.8 11.2,8.3 3.4,3.6 5.3,6.8 6.4,10.5 0.8,2.8 1.5,7.3 1.5,10 0,2.6 -0.5,5.8 -2,9.7 h -211 l -1.5,-2.2 c -0.9,-1.3 -1.5,-4.3 -1.6,-6.8 0,-2.5 0.9,-7.4 2,-11 1.4,-4.8 3.1,-7.7 6.3,-11 2.3,-2.4 6.5,-5.4 9.3,-6.7 2.7,-1.2 7.4,-2.7 10.5,-3.3 3.1,-0.6 19.2,-1 68.5,-1 l -6.5,-4.7 c -3.6,-2.7 -8.7,-6.9 -11.3,-9.5 -2.6,-2.7 -5.9,-7 -7.2,-9.8 -1.4,-2.7 -3.2,-7.6 -4,-10.7 -0.9,-3.2 -1.5,-8.7 -1.5,-12.3 0,-3.6 0.9,-10.1 2,-14.5 1.1,-4.4 3.8,-11.4 6,-15.5 2.2,-4.1 6.8,-11.1 10.3,-15.5 3.6,-4.4 10.1,-11.5 14.4,-15.7 4.4,-4.3 8.4,-7.8 8.9,-7.8 z m 365.7518,3.60349 c 1.5,0 6.4,0.9 10.8,2 4.4,1.2 11.1,3.8 14.9,5.8 3.8,2 9.9,6.2 13.5,9.2 3.6,3.1 9,8.9 11.9,13 2.9,4.1 6.2,10 7.4,13 1.6,4.5 2.1,8.1 2.2,19.5 0.2,11.2 0.7,15.1 2.3,19.5 1.1,3 3,7.5 4.2,10 1.3,2.5 4.4,6.6 11.6,14 h -16 c -8.8,0 -19,-0.5 -22.5,-1.1 -3.6,-0.5 -9.5,-2.4 -13,-4 -4,-1.9 -8.4,-5.1 -11.5,-8.3 -2.8,-2.8 -6.5,-7.9 -8.3,-11.1 -1.7,-3.3 -3.7,-8.7 -4.3,-12 -0.6,-3.3 -1.4,-17 -1.8,-30.5 -0.7,-21.8 -1.1,-25.2 -3.1,-30.5 -1.2,-3.3 -2,-6.6 -1.6,-7.2 0.3,-0.7 1.8,-1.3 3.3,-1.3 z m 219,0.1 c 1.8,0 3.5,0.5 3.8,1.2 0.4,0.6 -0.1,4.6 -1.1,8.7 -1.1,5 -1.9,15 -2.5,30.5 -0.5,15 -1.3,25.3 -2.3,29.8 -0.9,3.7 -2.9,8.8 -4.4,11.4 -1.5,2.6 -5.2,7.4 -8.2,10.6 -3.5,3.7 -7.7,7 -11.5,8.8 -3.3,1.6 -9.2,3.3 -13,3.9 -3.9,0.5 -14.6,1 -40.5,1 l 4.1,-3.7 c 2.2,-2.1 5.4,-5.8 7,-8.3 1.6,-2.5 4.1,-8.1 5.5,-12.5 1.9,-5.9 2.7,-10.8 3,-18.7 0.3,-9 0.8,-11.9 3.2,-17.5 1.6,-3.8 4.4,-9.3 6.4,-12.3 1.9,-3 5.7,-7.9 8.4,-10.9 2.7,-2.9 7.6,-7.4 10.9,-9.8 3.3,-2.5 8.7,-5.8 12,-7.3 3.3,-1.6 8.2,-3.3 11,-3.8 2.7,-0.5 6.4,-1 8.2,-1.1 z m -693.4518,17.29651 c 2.8,0 8.6,0.7 12.8,1.6 4.3,0.9 10.9,3 14.8,4.8 3.8,1.8 9.7,5.3 13,7.8 3.3,2.4 7.6,6.4 9.7,8.9 2,2.4 4.8,6.9 6.2,9.9 2,4.3 2.7,7.6 3,15 0.3,5.2 1.2,12 2.1,15 0.9,3 3.3,8.6 5.3,12.4 2,3.8 5.1,8.2 10.2,12.6 h -15.8 c -8.6,0 -18.2,-0.4 -21.2,-1 -3.1,-0.6 -8.2,-2.3 -11.5,-3.9 -3.4,-1.6 -8,-5.1 -10.6,-7.8 -2.5,-2.6 -5.9,-7 -7.5,-9.8 -1.6,-2.7 -3.9,-7.9 -5.2,-11.5 -1.5,-4.1 -3,-11.5 -3.9,-20 -0.9,-9.2 -2.4,-16.4 -4.4,-22.5 -1.7,-4.9 -2.8,-9.6 -2.5,-10.2 0.3,-0.8 2.5,-1.3 5.5,-1.3 z m 217.3,0.1 c 1.5,0 2.9,0.2 3.1,0.7 0.3,0.4 -0.4,4.8 -1.4,9.7 -1,5 -2.6,13.7 -3.4,19.5 -0.9,5.8 -2.3,13.4 -3.2,17 -0.9,3.6 -2.6,8.8 -3.8,11.5 -1.2,2.8 -4,7.8 -6.3,11.3 -2.3,3.4 -6.4,7.8 -9,9.7 -2.6,1.9 -7.7,4.5 -11.2,5.6 -5.2,1.8 -10,2.3 -23.8,2.8 -9.5,0.3 -17.2,0.4 -17.3,0.1 0,-0.3 1.2,-1.6 2.6,-3 1.5,-1.4 4.2,-5.5 6.1,-9.2 1.8,-3.8 4,-9.6 4.9,-13 0.8,-3.5 1.5,-10.6 1.5,-15.8 0,-8.4 0.3,-10.1 2.7,-14.9 1.5,-3 5.3,-8.1 8.4,-11.5 3,-3.3 8.4,-8 12,-10.3 3.5,-2.3 9.1,-5.2 12.4,-6.4 3.3,-1.2 9.8,-2.5 14.5,-2.9 4.6,-0.4 9.7,-0.8 11.2,-0.9 z m 850.3895,83.15569 c 37.7,0 70.9,0.4 76,0.9 5.4,0.6 11,1.9 14,3.3 2.7,1.3 7,4.1 9.5,6.4 2.7,2.4 5.4,6.2 6.8,9.4 1.5,3.5 2.5,7.9 2.7,12.4 0.3,4.9 -0.1,7.7 -2.5,11.5 h -201 l -1.7,-2.7 c -1.3,-2.2 -1.6,-4.3 -1.2,-9.8 0.4,-4.2 1.5,-9.1 3,-12.4 1.4,-3.2 4.3,-7.2 7.1,-9.7 2.6,-2.4 6.5,-5.1 8.5,-6 2.1,-0.9 5.6,-2 7.8,-2.4 2.2,-0.4 34.1,-0.8 71,-0.9 z M 1001.5712,-17.602706 c 3.8,0.3 5.5,1 7.2,3 1.5,1.7 2.3,3.9 2.3,6.4 0,2.3 -0.6,4.3 -1.6,5.2 -1,0.8 -2.8,2 -6.6,3.5 l 4.5,5.999998 c 2.4,3.3 6.9,8.2 9.8,10.9 5.1,4.6 5.6,4.9 9.4,4.3 2.9,-0.5 5.6,-2.2 10.3,-6.4 3.5,-3.2 7.7,-6.7 9.5,-7.7 1.7,-1.1 4.6,-2 6.4,-2 1.8,-0.1 4,0.7 5,1.7 1.6,1.5 1.6,2.2 0.5,6.2 -0.7,2.5 -3,8.7 -5.2,13.8 -2.1,5 -5.1,13.5 -6.5,18.7 -1.5,5.2 -3.1,10.5 -3.6,11.8 -0.5,1.2 -2.1,2.7 -3.4,3.2 -1.5,0.6 -17.6,1 -40.79997,1 -28.7,0 -38.9,-0.3 -40.7,-1.3 -1.66667,-0.8 -2.93333,-2.7 -3.8,-5.7 -0.8,-2.5 -2.3,-7.4 -3.4,-11 -1.1,-3.6 -4,-11.2 -6.5,-17 -2.4,-5.8 -4.9,-12.2 -5.4,-14.2 -0.7,-3 -0.6,-4.1 0.6,-5.3 0.9,-0.8 2.9,-1.5 4.5,-1.5 1.7,0 4.4,0.6 6.2,1.3 1.8,0.8 6.8,4.6 11,8.5 5.7,5.3 8.5,7.2 10.5,7.2 1.5,0 4,-0.8 5.4,-1.8 1.5,-0.9 4.4,-3.7 6.6,-6.2 2.2,-2.5 5.6,-6.7 11.4,-14.499998 l -3.6,-2.7 c -2.5,-2 -3.5,-3.6 -3.6,-5.5 0,-1.6 0.9,-4.1 2.1,-5.6 1.1,-1.6 3.1,-3.3 4.3,-3.8 1.2,-0.5 4.4,-0.7 7.19997,-0.5 z M 512.5,-26.631336 c 0.3,0 3.1,4.6 6.2,10.2 3.1,5.7 7.1,13.5 8.9,17.3 1.7,3.9 4.3,10.199998 5.6,13.999998 1.3,3.9 2.9,10.6 3.5,15 0.9,6.1 0.8,9.7 -0.1,15 -0.7,3.9 -2.4,9.9 -3.8,13.5 -1.6,4 -4.4,8.3 -7.2,11.2 -4.4,4.7 -4.6,4.8 -10.8,4.8 -3.4,0 -7.8,-0.7 -9.7,-1.5 -2.3,-1 -4.8,-3.4 -7,-6.7 -1.9,-2.9 -4.5,-8 -5.7,-11.3 -1.9,-5 -2.2,-8.1 -2.2,-19 0,-12.2 0.2,-13.5 3.3,-22 1.8,-4.9 6.6,-16.099998 10.8,-24.699998 4.1,-8.7 7.8,-15.8 8.2,-15.8 z M 31.6,22.897432 c 1.3,0 5.6,1.5 9.5,3.4 3.8,1.8 10.1,5.6 14,8.3 3.8,2.8 9.6,7.4 12.9,10.4 3.2,3 8,8.1 10.6,11.4 2.6,3.3 6.6,9.4 8.8,13.5 2.2,4.1 5.2,11.3 6.5,16 1.4,4.7 2.8,11.9 3.2,15.999998 0.4,4.3 0.2,11.1 -0.5,16 -0.6,4.7 -3.2,14.6 -5.6,22 -3.7,11.2 -4.5,14.8 -4.5,21 0,4.1 0.7,11.3 1.5,16 0.8,4.7 3.1,13.2 5.1,19 2,5.8 5.2,13.4 10.4,23.5 l -8.7,6.6 c -4.8,3.6 -11.1,9.3 -14.1,12.5 -3.1,3.4 -7,9.3 -9.2,13.9 -2.1,4.4 -5.9,15.2 -8.5,24 -2.6,8.8 -6.1,19.2 -7.9,23 -1.7,3.9 -4.7,8.7 -6.6,10.9 -1.9,2.1 -4.7,4.5 -6.2,5.2 -1.5,0.8 -5.3,1.4 -8.5,1.4 -4.3,0 -7.1,-0.7 -11.1,-2.7 -3,-1.6 -6.7,-4.4 -8.2,-6.3 -1.5,-1.9 -4,-6.2 -5.5,-9.5 -1.5,-3.3 -4,-12.3 -5.6,-20 -1.7,-8.7 -4,-16.5 -5.9,-20.5 -1.7,-3.6 -5,-9.2 -7.4,-12.5 -2.3,-3.3 -7.1,-8.7 -10.7,-12 -3.5,-3.3 -8.6,-7.5 -11.3,-9.3 -2.8,-1.8 -5.4,-3.3 -5.8,-3.5 -0.4,-0.1 1.3,-5.4 3.8,-11.7 2.6,-6.3 5.9,-16.4 7.5,-22.5 1.5,-6 3.3,-15.5 5.2,-31 l -3.7,-11.5 c -1.9,-6.3 -4.3,-15.1 -5.2,-19.5 -1.2,-6 -1.5,-11.3 -1.1,-21 0.4,-10.299998 1.1,-14.399998 3,-19.999998 1.4,-3.8 3.9,-9.7 5.5,-13 1.7,-3.3 5.1,-8.7 7.5,-12 2.5,-3.3 7.6,-8.9 11.4,-12.5 3.8,-3.6 10,-8.8 13.9,-11.5 3.8,-2.8 9.7,-6.5 13,-8.2 3.3,-1.8 7.1,-3.3 8.5,-3.3 z M 468.1,-1.631336 c 0.3,0 2.2,0.8 4.2,1.9 2.1,1 6.2,4 14.4,11.599998 l -2.2,8.5 c -1.8,7.1 -2.1,10.2 -1.6,18.5 0.3,5.5 1.2,12 2,14.5 0.8,2.5 2.4,6.5 3.7,9 1.2,2.5 2.9,5.3 3.8,6.3 0.9,0.9 1.4,2 1.2,2.2 -0.3,0.3 -2.3,0.1 -4.5,-0.4 -2.2,-0.5 -6.3,-2.5 -9,-4.3 -2.7,-1.8 -6.2,-5.1 -7.7,-7.3 -1.6,-2.2 -3.8,-7.6 -4.9,-12 -1.3,-4.9 -2.3,-12.8 -2.7,-20.5 -0.3,-8.2 -0.1,-14.9 0.8,-19.5 0.7,-3.799998 1.4,-7.299998 1.7,-7.699998 0.2,-0.5 0.6,-0.8 0.8,-0.8 z m 90.6,1.7 c 0.4,1 1.4,5.899998 2.4,10.799998 1.3,6.7 1.6,11.5 1.1,18.5 -0.4,5.2 -1.3,12.3 -2.1,15.8 -0.9,3.4 -2.4,7.9 -3.4,10 -1,2 -3.9,5.5 -6.3,7.6 -2.4,2.2 -6.6,5 -9.3,6.3 -2.8,1.2 -5.6,2.3 -6.3,2.3 -0.8,0 -0.3,-1.8 1.4,-5.2 1.5,-2.9 3.5,-7.8 4.6,-10.8 1.2,-3.5 2.1,-9.2 2.4,-16 0.4,-8.2 0.1,-12.3 -3.3,-26.5 l 3.1,-3.4 c 1.7,-1.9 5.8,-5.199998 9,-7.299998 5.4,-3.5 6.1,-3.7 6.7,-2.1 z M 435.8,14.568662 c 3.2,0.4 7.9,1.9 10.5,3.2 2.6,1.3 6,3.7 7.5,5.3 2.2,2.3 3.1,4.8 4.7,13.3 1.1,5.8 3.1,13.4 4.3,16.9 1.3,3.4 3.6,7.9 5.3,9.9 1.6,2 4.8,4.9 7,6.4 2.2,1.6 3.3,2.8 2.5,2.8 -0.9,0 -3.8,-0.6 -6.5,-1.3 -2.8,-0.8 -7.6,-2.6 -10.8,-4 -3.1,-1.5 -8,-4.8 -10.8,-7.4 -2.8,-2.7 -6.4,-7 -8,-9.8 -1.5,-2.7 -4.3,-9 -6.2,-14 -1.9,-4.9 -4.4,-10.9 -5.6,-13.2 -1.2,-2.4 -2.2,-5.2 -2.3,-6.2 -0.1,-1.1 0.4,-2.1 1.2,-2.3 0.8,-0.3 4.1,-0.1 7.2,0.4 z m 158,-1.1 c 2.6,-0.1 4.8,0.2 4.8,0.7 0,0.4 -2.3,6.8 -5.1,14.2 -2.8,7.4 -6.7,16.6 -8.7,20.4 -2.1,3.8 -5.5,9 -7.7,11.4 -2.2,2.5 -6.1,5.6 -8.5,7 -2.5,1.5 -7.1,3.4 -10.3,4.4 -3.1,1 -7,1.8 -8.5,1.8 -2.7,0.1 -2.7,0 1.3,-2.8 2.2,-1.5 5.7,-4.8 7.7,-7.3 2.1,-2.4 4.7,-7.1 5.8,-10.4 1.2,-3.3 2.7,-10.9 3.5,-17 1.3,-9.7 1.8,-11.3 4.2,-13.8 1.5,-1.6 4.1,-3.6 5.8,-4.5 1.6,-0.8 4.8,-2.1 7,-2.8 2.2,-0.7 6.1,-1.3 8.7,-1.3 z m 403.77123,56.72863 c 16.99997,-0.1 34.99997,0.3 39.99997,0.8 5.3,0.6 10.2,1.7 12,2.8 1.6,1 3.5,3 4.2,4.5 0.8,1.7 1,3.9 0.5,6 -0.5,1.7 -2.5,5.2 -4.6,7.7 -2,2.5 -4.6,6.9 -5.7,9.799998 -1,2.8 -2.2,9.1 -2.6,14 -0.3,4.9 -0.1,13.3 0.6,19.2 0.7,5.8 2.5,12.6 4.1,20 1.7,7.4 5,19.4 7.4,26.5 2.4,7.2 6.9,18.5 15.6,37.5 l -3.7,2.8 c -2,1.5 -6.7,6.3 -10.6,10.7 -3.8,4.4 -8,10 -9.2,12.5 -1.3,2.5 -3.9,9.7 -5.8,16 -1.9,6.3 -4.9,16.9 -6.6,23.5 -1.8,6.6 -4.2,14.3 -5.5,17 -1.2,2.8 -3.8,6.8 -5.7,8.9 -1.9,2.2 -4.9,4.5 -6.7,5.3 -2.1,0.8 -7.6,1.3 -15.69997,1.3 -9,0 -13.6,-0.4 -16.3,-1.5 -2,-0.9 -5.4,-3.3 -7.5,-5.3 -2.3,-2.3 -5.1,-6.8 -7.2,-11.7 -1.8,-4.4 -5.7,-15.9 -8.5,-25.5 -2.9,-9.6 -6.5,-20.9 -8.2,-25 -1.7,-4.1 -4.3,-9.3 -5.8,-11.5 -1.5,-2.2 -4.5,-5.6 -6.7,-7.5 -2.1,-1.9 -5.5,-4.6 -7.6,-6 -2,-1.4 -3.6,-2.7 -3.4,-3 0.1,-0.3 2.8,-5.7 5.9,-12 3,-6.3 7.3,-16.4 9.5,-22.5 2.2,-6 5.6,-17.3 7.6,-25 1.9,-7.7 4,-18 4.7,-23 0.7,-5.2 1,-11.1 0.8,-19.5 -0.4,-13.2 -0.7,-15 -3,-19.499998 -1.4,-2.7 -3.4,-5.7 -4.3,-6.5 -1,-0.8 -2.4,-2.7 -3.1,-4.2 -0.8,-1.6 -1.4,-4.4 -1.4,-6.3 0,-2.5 0.8,-4.4 2.7,-6.4 1.9,-2 4.1,-3 7.3,-3.5 2.4,-0.3 6,-0.7 8,-0.9 1.9,-0.2 17.4,-0.4 34.5,-0.5 z M 560.2,86.168662 c 4.2,4.8 5.4,17.899998 6.8,24.199998 1.4,6.3 7.5,47.8 9.9,55.5 2.4,7.7 5.4,22.4 9,32.8 3.7,10.3 6.7,19.5 6.7,20.5 0,1.1 -2.3,2.9 -6.8,5.1 -4.8,2.5 -9.4,6.1 -15.8,12.5 -6,6.1 -10.1,11.2 -15.4,21.6 l -2.9,-5.7 c -1.6,-3.2 -5.1,-8.7 -7.7,-12.3 -2.6,-3.6 -9.1,-11 -14.4,-16.5 -5.4,-5.5 -11.4,-12.1 -13.4,-14.7 -3.5,-4.7 -3.7,-4.7 -4.8,-2.5 -0.6,1.2 -6.2,7.4 -12.3,13.7 -6.1,6.3 -13.4,14.7 -16.3,18.5 -2.8,3.9 -6.6,9.7 -11.4,19 l -2.7,-5 c -1.5,-2.7 -4.7,-7.7 -7.2,-10.9 -2.4,-3.3 -7.4,-8.4 -10.9,-11.3 -3.6,-2.9 -8.9,-6.6 -17.2,-10.8 l 0.6,-4.5 c 0.3,-2.5 2.8,-10.8 5.5,-18.5 2.7,-7.7 6.4,-26 9.6,-34.5 3.1,-8.5 4.7,-19.5 6.1,-24.5 1.3,-4.9 6.2,-48.599998 10.4,-51.899998 7.3,-5.8 22.9,-1.3 49,-1.5 25.3,-0.1 41.3,-3.1 45.6,1.7 z M 889.77123,211.99729 c 1.5,0 5.4,0.7 8.5,1.5 3.2,0.8 8.1,2.7 11,4.1 2.9,1.5 8.4,4.8 12.3,7.5 3.8,2.6 9.5,7.4 12.6,10.6 3.1,3.2 6.9,8.5 8.6,11.8 1.6,3.3 4.1,9.4 5.6,13.5 1.4,4.1 4.6,14 7.2,22 2.6,8 5.7,16.5 7,19 1.2,2.5 4.1,6.6 6.4,9.3 2.2,2.6 4.1,4.9 4.1,5.2 0,0.3 -8.2,0.2 -18.3,-0.1 -10.6,-0.3 -20.7,-1.2 -24.2,-2 -3.3,-0.9 -8.3,-2.7 -11,-4.2 -2.8,-1.5 -7.3,-4.9 -10.1,-7.7 -2.7,-2.7 -6.3,-7.2 -7.8,-10 -1.5,-2.7 -3.6,-7.9 -4.7,-11.5 -1,-3.6 -2.4,-10.5 -2.9,-15.5 -0.6,-4.9 -1,-12.1 -1,-16 0,-3.8 -0.7,-10.6 -1.5,-15 -0.8,-4.4 -1.9,-9.3 -2.4,-11 -0.5,-1.6 -1.5,-4.1 -2.1,-5.5 -0.7,-1.4 -1,-3.3 -0.7,-4.2 0.4,-1.1 1.7,-1.8 3.4,-1.8 z m 216.99997,1.1 c 2.9,-0.1 5.5,0.4 5.8,0.9 0.2,0.6 -0.4,3.4 -1.4,6.3 -1,2.8 -2.4,9.9 -3,15.7 -0.6,5.8 -1.5,16.4 -2.1,23.5 -0.5,7.2 -1.7,15.7 -2.5,19 -0.9,3.3 -3.1,9.2 -4.9,13 -2.3,4.8 -5.3,8.8 -9.3,12.5 -3.9,3.8 -7.8,6.3 -11.8,7.9 -3.3,1.2 -9.6,2.6 -14,3.1 -4.4,0.5 -14.9,1.1 -38.5,2 l 3.5,-4.2 c 2,-2.4 4.7,-6.8 6.1,-9.8 1.5,-3 4.2,-11.1 6.1,-18 1.9,-6.9 5,-17.2 6.9,-23 1.9,-5.8 4.7,-12.7 6.3,-15.5 1.6,-2.7 5.5,-7.9 8.7,-11.4 3.2,-3.5 8.8,-8.3 12.4,-10.6 3.5,-2.4 8.7,-5.3 11.5,-6.5 2.7,-1.2 7.2,-2.8 10,-3.5 2.7,-0.8 7.3,-1.4 10.2,-1.4 z m -594.0712,4.77137 10.7,11 c 5.9,6.1 12.7,13.9 15.1,17.5 2.5,3.6 5.7,9.1 7.3,12.3 1.5,3.1 3.4,8.5 4.3,12 0.8,3.4 1.5,8.9 1.5,12.2 0,3.3 -0.7,8.5 -1.6,11.5 -0.9,3 -2.6,7.3 -3.7,9.5 -1.1,2.2 -3.4,5.8 -5.1,7.9 -1.7,2.2 -6.1,5.9 -16.1,12.8 l 33,-0.7 c 21.9,-0.4 35.2,-0.3 39.7,0.4 3.7,0.6 9,2.2 11.8,3.6 2.7,1.4 6.6,4.2 8.7,6.3 2,2 4.7,6 5.9,8.7 1.9,3.9 2.4,6.8 2.4,13.3 0,6.2 -0.4,8.6 -1.6,9.7 -1.4,1.3 -15.2,1.5 -221.4,1.5 l -1.7,-2.7 c -1.3,-2.2 -1.6,-4.3 -1.2,-9.8 0.3,-4 1.5,-9.1 2.8,-12 1.2,-2.7 3.6,-6.5 5.4,-8.3 1.7,-1.9 5,-4.4 7.2,-5.7 2.2,-1.3 6,-2.9 8.5,-3.6 3.3,-0.9 14.2,-1.2 76.5,-0.8 l -5.5,-3.7 c -3.1,-2 -7.2,-5.3 -9.3,-7.3 -2,-2 -4.8,-5.6 -6.2,-8.1 -1.3,-2.5 -3.1,-7.2 -4,-10.5 -0.8,-3.3 -1.5,-9.1 -1.5,-13 0,-3.8 0.6,-9.6 1.5,-12.7 0.8,-3.2 2.8,-8.4 4.4,-11.5 1.6,-3.2 5.3,-9.2 8.2,-13.3 2.9,-4.1 9.5,-11.8 14.6,-17 z m -109.1,2.5 c 3,0 8.7,0.7 12.5,1.5 3.9,0.8 11.1,3.5 16,6 5,2.4 11.5,6.6 14.4,9.2 3,2.7 7.5,7.7 10,11.3 2.5,3.6 6,9.9 7.8,14 2.9,6.9 3.1,8.1 2.6,15.5 -0.4,5.6 0,10.3 1.1,15.5 0.9,4.1 2.7,9.8 4,12.5 1.3,2.8 3.8,6.8 9.1,12.8 l -20,-0.6 c -12.9,-0.4 -21.6,-1.1 -24.5,-2 -2.4,-0.8 -6.5,-2.5 -9,-3.7 -2.4,-1.3 -6.6,-4.6 -9.3,-7.4 -2.7,-2.8 -6.2,-7.7 -7.8,-10.8 -1.6,-3.2 -3.8,-9.1 -4.9,-13 -1.3,-4.7 -2.3,-13.2 -3,-23.8 -0.7,-12.3 -1.7,-19 -3.7,-26.2 -1.4,-5.4 -2.2,-10 -1.8,-10.3 0.5,-0.3 3.4,-0.5 6.5,-0.5 z m 219.3,0.1 c 2.7,-0.1 3.9,0.4 4.4,1.7 0.4,0.9 -0.1,5.5 -1.1,10.2 -1,4.7 -2.1,15.9 -2.6,25 -0.4,9.8 -1.4,19.1 -2.5,23 -0.9,3.6 -3,9.2 -4.7,12.5 -1.7,3.3 -5.6,8.6 -8.7,11.9 -3,3.2 -7.7,6.9 -10.3,8.2 -2.6,1.3 -6.7,2.8 -9,3.3 -2.3,0.5 -12.7,1.2 -23,1.5 -10.3,0.3 -18.8,0.4 -18.8,0.1 0,-0.3 1.5,-2.6 3.3,-5.2 1.8,-2.7 4.6,-8.6 6.2,-13.3 2.4,-7.2 2.8,-10 2.7,-18.5 0,-7.7 0.4,-11.5 2.1,-16.5 1.2,-3.6 4.2,-9.6 6.8,-13.5 2.6,-3.8 7.1,-9.2 10.1,-11.9 2.9,-2.6 8.3,-6.6 11.8,-8.7 3.6,-2.1 8.6,-4.6 11,-5.5 2.5,-0.8 7.7,-2.2 11.5,-2.9 3.9,-0.7 8.7,-1.4 10.8,-1.4 z m -691.3,-0.37123 c 6,0.4 11.9,1.3 16,2.7 3.6,1.2 9.7,4.1 13.5,6.3 4.1,2.4 10.6,7.7 15.6,12.7 6.5,6.5 9.5,10.5 12.6,16.6 2.3,4.5 4.8,11.5 5.7,16 1,4.4 2.4,11.2 3.3,15 0.9,3.9 2.8,9.5 4.4,12.5 1.5,3 4.5,7.3 10.4,13.4 l -20,-0.7 c -12.6,-0.4 -22.3,-1.2 -26.5,-2.2 -3.5,-0.9 -8.7,-2.8 -11.3,-4.3 -2.7,-1.5 -7,-4.9 -9.6,-7.7 -2.6,-2.7 -5.9,-7.2 -7.3,-10 -1.4,-2.7 -3.5,-8.1 -4.6,-12 -1.2,-3.8 -3,-13.7 -4.2,-22 -1.1,-8.2 -2.8,-17.7 -3.6,-21 -0.9,-3.3 -2.4,-7.7 -3.5,-9.7 -1,-2.1 -1.6,-4.3 -1.2,-4.9 0.5,-0.8 3.8,-1 10.3,-0.7 z m 207.3,-0.1 c 3.6,-0.1 4.7,0.3 4.7,1.4 0,0.8 -0.7,3 -1.6,4.8 -0.9,1.7 -2.2,6.5 -3,10.5 -0.7,3.9 -1.4,9.8 -1.4,13 0,3.1 -0.6,9.8 -1.4,14.7 -0.8,5 -2.2,11.5 -3.1,14.5 -0.9,3 -3.3,8.6 -5.3,12.4 -2.2,4.1 -5.9,9 -9.2,12 -3.4,3.2 -7.7,6 -11.2,7.4 -3.2,1.2 -8.8,2.7 -12.5,3.3 -3.7,0.6 -14.6,1.4 -24.3,1.8 -9.6,0.4 -17.6,0.6 -17.7,0.4 -0.1,-0.2 1,-2 2.6,-4 1.5,-2.1 3.7,-5.4 4.9,-7.3 1.2,-1.9 5.5,-13.6 9.7,-26 4.1,-12.4 9,-24.9 10.8,-27.8 1.8,-3 5.9,-8 9.2,-11.1 3.3,-3.1 9,-7.3 12.5,-9.3 3.6,-2.1 9.9,-4.9 14,-6.3 4.2,-1.4 9.8,-3 12.5,-3.4 2.8,-0.5 7.2,-0.9 9.8,-1 z m -105.5,103 c 77.4,-0.1 78.3,-0.1 84,2 4.2,1.6 7.3,3.7 11.5,8 4.3,4.5 6.1,7.2 7.2,11.2 0.9,2.8 1.5,8.1 1.5,11.7 0,4.8 -0.5,7 -1.7,8.3 -1.7,1.7 -7.2,1.8 -103.3,1.8 -81.7,0 -101.7,-0.3 -102.7,-1.3 -0.7,-0.7 -1.5,-3.5 -1.9,-6.3 -0.4,-2.9 -0.1,-7.3 0.6,-10.5 0.7,-3 2.3,-7.3 3.5,-9.5 1.2,-2.2 4.2,-5.7 6.6,-7.8 2.6,-2.2 6.9,-4.6 10.4,-5.7 5.7,-1.8 10.3,-1.9 84.3,-1.9 z m 1052.1712,0.49986 5.5,2.6 c 3.1,1.4 7.1,3.9 9,5.6 2,1.7 4.9,5.5 6.5,8.4 2.2,4.2 3,7.1 3.4,12.9 0.4,5.9 0.1,8.1 -2.9,13 l -213.49997,0.1 -2,-2.2 c -1.6,-1.7 -1.9,-3.4 -1.8,-8.8 0.1,-3.9 0.9,-8.9 2.2,-12.1 1.4,-3.9 3.6,-7 7.6,-10.7 4.2,-4 7.1,-5.8 11.8,-7.3 6,-1.8 9.3,-1.9 174.19997,-1.5 z M 1481.6039,17.905982 c 5.5,2.7 13.9,7.8 18.5,11.3 4.7,3.5 11.6,9.7 15.4,13.8 3.8,4.1 10.2,12.4 14.2,18.4 4,6.1 8.9,14.4 10.8,18.5 1.9,4.1 5.1,12.9 7,19.5 1.9,6.599998 4.4,17.599998 5.6,24.499998 1.3,7.4 2.4,19.8 2.9,30.2 0.3,9.7 0.7,17.6 0.9,17.5 0.1,-0.1 0.7,-6.3 1.3,-13.7 0.9,-10.1 0.9,-16.8 0,-26.5 -0.6,-7.1 -1.8,-17 -2.7,-22 -0.8,-4.9 -2.7,-12.599998 -4.1,-16.999998 -1.4,-4.4 -4.4,-11.8 -6.8,-16.5 -2.3,-4.7 -7,-12.7 -10.4,-17.7 -3.3,-5.1 -9.8,-13.2 -14.3,-17.9 -4.5,-4.8 -10.7,-10.3 -13.8,-12.4 -3,-2 -8.8,-5.4 -13,-7.5 -4.1,-2.1 -9.9,-4.6 -13,-5.7 -3,-1 -6.1,-1.8 -7,-1.8 -0.8,0 3,2.2 8.5,5 z m -72.8,46.3 c -1.9,1.9 -2.6,3.7 -2.6,6.7 0,2.2 0.3,4 0.7,4 0.4,0 2.5,-1 4.7,-2.3 2.2,-1.2 4.7,-3.7 5.7,-5.4 1,-1.8 1.7,-3.5 1.6,-3.8 -0.1,-0.3 -1.9,-0.8 -3.9,-1.1 -3,-0.5 -4,-0.2 -6.2,1.9 z" /></g><g
       id="g1"><path
         style="fill:#000000;stroke-width:0.445192"
         d="m -71.929629,939.2781 c -0.9498,-1.1445 -1.4469,-4.5287 -1.4469,-9.8522 0,-5.3236 0.4971,-8.7079 1.4469,-9.8523 1.3274,-1.5996 9.857,-1.7432 103.5085,-1.7432 H 133.64077 l 1.6409,2.3429 c 2.23368,3.18928 2.23375,15.31596 0,18.5052 l -1.6409,2.3428 H 31.578871 c -93.6515,0 -102.1811,-0.1437 -103.5085,-1.7432 z m 471.963439,5e-4 c -0.9498,-1.144 -1.4466,-4.5274 -1.4466,-9.849 0,-5.3197 0.4972,-8.7068 1.4466,-9.8528 1.3301,-1.6057 10.3926,-1.7466 112.3994,-1.7466 102.0971,0 111.0682,0.1398 112.3994,1.75 0.9704,1.1736 1.4292,4.5126 1.3934,10.1384 -0.045,6.9711 -0.3901,8.6344 -2.0462,9.8454 -1.666,1.2181 -20.0925,1.4571 -112.346,1.4571 -101.3477,0 -110.4713,-0.1421 -111.8,-1.7425 z m 489.86786,6.60093 c -0.9497,-1.1445 -1.4466,-4.5287 -1.4466,-9.8522 0,-5.3236 0.4969,-8.7079 1.4466,-9.8523 1.3288,-1.6009 10.3305,-1.7432 110.29123,-1.7432 99.9605,0 108.9625,0.1423 110.2911,1.7432 0.9498,1.1444 1.4468,4.5287 1.4468,9.8523 0,5.3235 -0.497,8.7077 -1.4468,9.8522 -1.3286,1.601 -10.3306,1.7432 -110.2911,1.7432 -99.96073,0 -108.96243,-0.1422 -110.29123,-1.7432 z M -63.065129,907.0716 c -3.4507,-1.666 -4.8865,-7.3104 -4.1926,-16.4838 1.1272,-14.9047 11.914774,-31.02015 25.0489,-37.4207 l 5.8684,-2.8598 69.5019,0.2929 69.501899,0.2929 4.8489,2.8506 c 6.57649,3.86622 15.5914,13.8513 19.2158,21.2841 5.7896,11.8725 6.32635,25.68375 1.1979,30.8124 l -2.5029,2.503 -93.074999,-0.07 c -63.8621,-0.049 -93.8088,-0.4257 -95.4132,-1.2003 z m 471.666439,-0.076 c -4.6784,-2.3376 -6.5039,-7.5535 -6.0539,-17.298 0.34,-7.3633 0.9693,-9.7866 4.2832,-16.4916 4.5265,-9.1589 13.19737,-17.89225 22.077,-22.2368 l 5.6488,-2.7638 78.4682,0.2898 78.4685,0.2899 5.2706,3.0961 c 8.27856,4.86306 15.4875,12.8072 20.1111,22.1621 3.8398,7.7695 4.1339,9.0094 4.1339,17.4258 0,10.0241 -1.6302,14.0354 -6.4485,15.8673 -4.2931,1.6322 -202.6671,1.304 -205.9589,-0.3408 z m 489.41636,5.48533 c -3.41425,-3.41425 -4.4139,-12.8085 -2.2353,-21.0082 2.5078,-9.4385 6.599,-16.48 13.6279,-23.4554 11.4853,-11.3978 3.8216,-10.4793 90.2555,-10.8171 68.27723,-0.2666 75.80673,-0.1288 80.00693,1.4647 6.9503,2.6369 17.9535,14.0175 22.3094,23.0749 3.2744,6.8085 3.5517,8.1801 3.5863,17.7434 0.037,10.0691 -0.046,10.43683 -2.92,12.9132 l -2.9577,2.5485 h -99.6045 -99.60453 z M -30.680029,840.1092 c -8.4649,-1.0488 -8.3367,-4.736 0.5838,-16.7785 13.1329,-17.729 20.1745002,-35.2998 24.6082002,-61.4066 4.0183,-23.6583 2.7741,-29.4409 -6.8566002,-31.8661 -5.5372,-1.3942 -8.8523,-5.072 -8.8523,-9.8204 0,-4.2612 2.7143,-7.1652 10.3286,-11.0501 3.3058002,-1.6867 6.9591002,-3.7835 8.1185002,-4.6596 2.0749,-1.5673 2.0564,-1.6483 -1.1648,-5.0923 -7.2514002,-7.7532 -14.0361002,-20.1202 -16.8628002,-30.737 -1.9476,-7.3142 -1.8522,-21.5897 0.1973,-29.5335 2.4635,-9.5488 8.0109,-19.3078 17.4625002,-30.7202 17.9242998,-21.6426 29.5971998,-32.1527 35.7103998,-32.1527 3.9959,0 10.9483,5.6585 21.7804,17.727 25.0641,27.9247 33.2783,44.6071 31.4364,63.845 -1.321,13.7985 -5.6938,23.9913 -16.3083,38.0149 -2.9225,3.8613 -5.3137,7.4167 -5.3137,7.9012 0,0.4845 3.779,2.847 8.3978,5.2499 8.8174,4.5872 11.6307,7.3582 11.6307,11.4547 0,4.1946 -1.9465,6.4361 -8.433,9.7105 -3.435,1.7339 -6.8047,4.1977 -7.4884,5.475 -2.7124,5.0682 1.2093,37.2883 6.5337,53.6785 3.4092,10.495 10.0171,22.6443 18.5105,34.0333 7.767299,10.4152 8.531899,12.6424 5.4644,15.9156 -0.9745,1.0398 -121.5407,1.7953 -129.4833,0.8114 z m 963.408399,6.61543 c -7.4359,-1.1379 -7.6037,-5.1736 -0.6652,-16.0041 13.3497,-20.8382 22.7122,-45.57 27.1759,-71.7863 0.839,-4.928 1.7766,-16.3126 2.0835,-25.2989 0.5223,-15.2942 0.417,-16.5615 -1.6468,-19.8149 -1.2125,-1.9117 -4.3094,-4.7577 -6.8818,-6.3247 -5.9814,-3.6438 -7.8423,-7.5618 -5.3778,-11.323 0.9688,-1.4788 2.9536,-3.1419 4.4104,-3.6957 3.8652,-1.4695 95.10413,-1.3245 99.35673,0.158 5.9517,2.0746 7.4359,8.94 2.6431,12.2258 -1.5194,1.0418 -4.697,3.61614 -7.0612,5.7208 l -4.2986,3.8267 -0.4437,10.1461 c -0.8192,18.73321 3.6736,48.7373 10.364,69.2104 4.1057,12.5643 10.797,26.7228 17.7557,37.5707 2.9814,4.6478 5.4206,9.4122 5.4206,10.5878 0,5.097 1.0332,5.0226 -71.5785,5.158 -37.45173,0.07 -69.51683,-0.091 -71.25633,-0.3567 z M 434.99171,835.6785 c -1.9294,-3.6054 -1.1866,-6.1558 3.3029,-11.3371 8.7677,-10.1186 14.9112,-21.3637 21.0183,-38.4724 9.5299,-26.6971 13.0074,-46.6495 12.2638,-70.3675 -0.6104,-19.4722 -1.8179,-23.659 -9.2854,-32.1924 -7.4754,-8.5426 -6.9451,-13.8096 1.8461,-18.3374 3.6031,-1.8556 92.0702,-1.6431 96.5562,0.2321 4.2126,1.7608 5.831,3.6619 6.6642,7.8273 0.5618,2.8097 0.015,3.9312 -4.0715,8.3326 -2.5966,2.7973 -5.4506,6.5187 -6.3427,8.2696 -2.6156,5.135 -3.9264,14.7366 -3.9264,28.7621 0,36.8526 12.4934,78.9667 30.5504,102.9832 6.3346,8.425 7.6939,12.4593 5.0792,15.0739 -0.9602,0.9603 -19.4814,1.265 -76.9144,1.265 -73.7136,0 -75.6774,-0.052 -76.7407,-2.039 z M 960.69327,679.38383 c -0.8249,-0.9939 -1.0331,-3.0189 -0.5836,-5.6789 0.9761,-5.7772 -0.6868,-11.1535 -8.6131,-27.8487 -5.5339,-11.6563 -6.9965,-15.8181 -7.4221,-21.1209 -0.6555,-8.1676 2.308,-15.9456 7.9702,-20.917 5.9654,-5.2378 17.8874,-10.33875 28.6023,-12.238 l 9.619,-1.705 -0.3072,-6.9162 -0.3073,-6.9166 -8.2102,-0.527 c -5.70589,-0.36625 -8.5147,-1.0093 -9.2076,-2.1082 -1.4517,-2.302 -1.27,-15.14983 0.2355,-16.65533 0.7677,-0.7676 4.4977,-1.265 9.4872,-1.265 h 8.2222 v -9.02952 c 0,-13.00432 0.096,-13.10739 12.18573,-13.10739 9.7679,0 10.0275,0.0634 11.0312,2.70397 0.5656,1.48717 1.0281,6.46794 1.0281,11.06842 v 8.36452 h 7.777 c 9.619,0 10.6704,0.9766 10.6704,9.91273 0,9.9795 -0.1346,10.1158 -9.9812,10.1158 h -8.4662 v 7.2863 7.2863 l 4.4801,0.6685 c 20.6449,3.08054 33.3184,10.1407 38.4923,21.442 4.1572,9.0801 3.1766,14.473 -6.202,34.115 -7.2535,15.1909 -7.7449,16.6771 -8.1329,24.6007 -0.2299,4.6955 -0.9445,8.7763 -1.6122,9.2075 -0.6595,0.426 -18.8107,0.7818 -40.3364,0.7905 -33.10603,0.015 -39.33483,-0.2218 -40.41923,-1.5285 z M 467.13221,650.7979 c -0.88167,-1.34555 -3.755,-9.944 -6.3851,-19.1077 -4.8506,-16.8995 -10.084,-31.5233 -14.0956,-39.3865 -1.2153,-2.3821 -2.2098,-5.5964 -2.2098,-7.1427 0,-2.7309 0.148,-2.7972 5.1671,-2.3149 6.0369,0.58 13.6061,4.2638 23.5806,11.4765 3.9257,2.8386 7.783,5.1612 8.5717,5.1612 0.7888,0 7.014,-9.5285 13.8339,-21.1747 12.7247,-21.7296 15.0504,-24.41183 19.2283,-22.1759 1.1714,0.627 7.6974,10.6477 14.5024,22.2685 6.8051,11.621 12.7508,21.3624 13.2127,21.6479 0.4618,0.2854 4.0759,-1.9331 8.0311,-4.93 12.7021,-9.6242 27.7812,-15.3321 29.3949,-11.1266 0.2903,0.7562 -1.8345,6.33 -4.7219,12.386 -3.1359,6.5777 -7.8495,19.7112 -11.7076,32.6206 -3.6278,12.1387 -7.205,22.1871 -8.1624,22.9273 -1.2985,1.0041 -11.809,1.3177 -44.1705,1.3177 h -42.4666 z M 2354.1045,940.41339 c -0.7633,-0.76322 -1.2649,-4.46133 -1.2649,-9.32377 0,-6.46853 0.3804,-8.4031 1.9276,-9.80341 1.7649,-1.59717 10.2522,-1.74461 100.4351,-1.74461 87.4505,0 98.7701,0.18421 100.85,1.64097 2.1024,1.47265 2.3427,2.54276 2.3427,10.42858 0,7.04071 -0.3313,8.91471 -1.6673,9.42744 -0.9172,0.35189 -46.5978,0.63977 -101.5129,0.63977 -76.252,0 -100.1443,-0.29893 -101.1103,-1.26497 z m -498.0869,2.12875 c -1.6084,-3.84953 -1.1848,-12.72712 0.7902,-16.56234 0.8959,-1.73956 7.4278,-1.84474 114.6299,-1.84474 103.0569,0 113.8111,0.15811 115.0838,1.6915 1.8135,2.18521 2.5279,13.79526 1.0798,17.54641 l -1.1191,2.89885 H 1972.029 1857.5759 Z m -485.0199,4.56052 c 0,3.64102 -1.3519,-15.04029 0.5497,-17.75499 l 1.6411,-2.34281 111.4145,0.0159 c 67.2381,0.01 112.0324,0.40675 112.9727,1.00134 2.0046,1.26762 2.8793,15.64384 1.1487,18.87756 l -1.1997,2.24169 h -112.7179 c -110.362,0 -113.8091,-4.30306 -113.8091,-2.03896 z m 992.404,-37.34805 c -11.467,-5.80197 -2.3078,-28.96449 15.6213,-39.50408 l 4.9135,-2.8884 70.4096,-0.29232 c 79.4728,-0.32995 74.1881,-0.83534 84.1805,8.05095 12.714,11.30667 18.0751,27.23993 11.4086,33.90639 -2.0406,2.04058 -3.8667,2.08114 -93.0002,2.06589 -70.81,-0.0119 -91.4971,-0.30811 -93.5333,-1.33843 z m -980.0319,8.06448 c -1.5816,-0.24031 -3.8852,-1.71091 -5.1194,-3.26802 -3.1717,-4.00195 -2.4156,-14.29088 1.6369,-22.27564 4.067,-8.01312 13.2743,-17.31791 20.914,-21.13548 l 6.3366,-3.16641 h 78.1959 78.1961 l 6.4236,3.20992 c 7.6916,3.84355 17.3908,13.83348 20.9242,21.55149 3.4702,7.57982 4.1894,15.90091 1.7752,20.53584 -1.0987,2.10926 -3.0222,3.96233 -4.5413,4.37499 -2.7827,0.75592 -199.8093,0.92265 -204.7418,0.17331 z m 481.4291,-4.30977 c 0,-6.13486 -6.4688,-13.63412 -2.5611,-23.13191 3.4526,-8.39184 8.2458,-14.88755 18.2566,-24.74184 9.7545,-9.60206 10.1247,-10.6309 7.2433,-20.12921 -2.1296,-7.02051 -1.9907,-10.18189 0.5922,-13.46557 l 2.1847,-2.77748 h 80.5646 c 78.813,0 80.6097,0.0453 82.6459,2.08147 3.0918,3.09176 3.6043,6.76903 1.7159,12.31141 -3.5081,10.29563 -2.9466,11.80084 9.1158,24.43549 13.5198,14.16124 17.7946,21.63379 18.4792,32.3031 0.445,6.93327 0.2738,7.71619 -2.3735,10.86249 l -2.8529,3.39068 -105.583,-0.0317 c -69.7536,-0.0215 -107.4277,0.30381 -107.4277,-1.10656 z m 527.278,-58.85655 c -3.9162,-2.743 -2.8919,-5.91724 4.6088,-14.28214 15.779,-17.59713 26.6213,-51.74776 25.557,-80.49829 -0.4788,-12.93883 -1.7777,-15.44826 -9.9258,-19.17858 -6.9111,-3.16404 -8.879,-5.74405 -8.879,-11.64071 0,-3.44813 0.6972,-5.27278 2.9998,-7.84973 2.5583,-2.86331 4.6802,-3.76429 14.4215,-6.12317 6.2819,-1.5212 11.5722,-3.21979 11.756,-3.77467 0.1839,-0.55487 -1.7735,-2.34045 -4.3496,-3.96795 -6.8782,-4.34554 -15.8489,-14.5587 -19.3944,-22.08049 -18.8284,-39.94515 14.378,-83.34746 56.9721,-74.46502 27.9718,5.83316 45.8009,34.25823 39.7345,63.34875 -2.6446,12.68088 -11.4773,25.69727 -22.0355,32.47243 -2.9399,1.88666 -5.1736,3.94618 -4.9634,4.57666 0.2101,0.63055 5.3286,2.45345 11.374,4.0509 9.3741,2.47703 11.4963,3.44951 14.4179,6.60718 6.0921,6.5841 3.9455,12.58524 -6.541,18.28674 -3.0236,1.64386 -6.0974,4.34482 -7.2984,6.41283 -5.8244,10.03038 -1.7307,46.15751 7.8335,69.13205 4.1248,9.90829 11.7283,21.49957 18.315,27.92063 5.3542,5.21969 6.418,9.65629 2.7817,11.60234 -1.3387,0.71649 -23.1619,1.09125 -63.5404,1.09125 -53.9576,0 -61.7889,-0.20126 -63.8443,-1.64101 z m -997.4505,2.35085 c -4.4332,-1.93097 -8.3551,-6.90112 -10.657,-13.50592 -2.9017,-8.32495 -2.6432,-24.36152 0.5484,-34.02842 5.3821,-16.30206 12.1648,-26.24274 34.883,-51.12532 18.4288,-20.1847 23.6055,-27.24651 27.6245,-37.68425 3.7816,-9.82081 4.8212,-11.0704 11.2162,-13.48043 10.4614,-3.94244 19.9843,-12.71471 25.3228,-23.32667 3.9573,-7.86625 4.8341,-13.32114 3.0933,-19.24621 -1.9892,-6.77079 -3.5625,-6.49537 -4.2184,0.73856 -0.7421,8.18473 -4.8789,16.09284 -12.2493,23.41634 -8.8798,8.82328 -13.7703,10.73638 -29.6567,11.60106 -11.4929,0.6255 -14.1867,1.14367 -21.0826,4.05503 -4.3482,1.83577 -10.7585,5.15009 -14.2447,7.36504 -5.341,3.39322 -7.1215,5.37417 -11.3106,12.5837 -6.5079,11.20047 -10.622,15.75808 -15.5606,17.2377 -3.4924,1.04632 -4.641,0.90836 -8.668,-1.0411 -2.5534,-1.23602 -5.6974,-2.24729 -6.9868,-2.24729 -3.6085,0 -10.007,-3.68339 -13.6945,-7.88314 -5.2994,-6.0357 -6.81,-10.55054 -6.9172,-20.67603 l -0.097,-9.05775 5.0428,-7.58599 c 2.7736,-4.17234 9.4608,-13.41616 14.8604,-20.54208 17.3616,-22.91248 23.224,-32.80937 27.9634,-47.20807 4.5725,-13.89214 15.269,-25.35607 30.5938,-32.78866 8.8436,-4.28917 8.8753,-4.31878 6.3249,-5.932 -4.7724,-3.01898 -10.2359,-9.43884 -12.9941,-15.269 -1.51,-3.19229 -2.7457,-6.33285 -2.7457,-6.979 0,-2.05423 13.2224,-7.45416 23.3895,-9.55219 17.6329,-3.63853 42.346,-2.28507 60.4747,3.31199 39.9516,12.33478 71.0229,49.64439 80.5205,96.68699 5.1457,25.48726 4.9942,51.23662 -0.5069,86.15251 -1.4578,9.25306 -3.4409,21.80462 -4.4065,27.89221 -1.1163,7.03653 -1.771,17.59617 -1.797,28.98863 -0.046,20.04348 1.3527,27.16022 8.4161,42.82497 1.9936,4.42129 3.6246,8.95563 3.6246,10.07626 0,3.30922 -2.4112,5.6539 -6.8799,6.68996 -2.3745,0.5505 -41.3953,0.96406 -90.1001,0.95494 -69.0867,-0.013 -86.5411,-0.29036 -89.1262,-1.41637 z m 19.0202,-215.20878 c 2.1291,-1.0104 4.4017,-3.39628 5.8687,-6.16185 4.3894,-8.27397 -0.1145,-10.80779 -7.4427,-4.18722 -3.8273,3.45779 -6.686,9.1978 -5.5816,11.20728 0.6882,1.25208 3.392,0.92781 7.1556,-0.85821 z m 485.785,175.30517 c -0.9913,-0.99128 -1.4268,-2.73334 -1.1203,-4.48003 0.276,-1.57194 2.6384,-14.95423 5.2499,-29.73844 9.0069,-50.99193 10.9271,-62.77077 12.594,-77.25674 2.085,-18.12028 1.4385,-21.45174 -5.0011,-25.76524 -4.7284,-3.16721 -6.3169,-7.41655 -3.8735,-10.36081 1.8896,-2.27685 125.5545,-2.27685 127.4441,0 2.4413,2.94166 0.8549,7.1936 -3.8628,10.35378 -3.0279,2.02809 -4.7563,4.11052 -5.4266,6.53814 -1.6013,5.79982 0.5326,21.45793 12.1126,88.87544 5.5542,32.33612 6.6741,40.65609 5.6403,41.90164 -1.113,1.34115 -10.9442,1.55423 -71.7122,1.55423 -61.9793,0 -70.617,-0.19447 -72.0444,-1.62197 z m -3.7993,-160.95354 c -8.2563,-4.17011 -8.432,-5.02359 -8.4153,-40.87173 0.01,-17.10331 0.3989,-31.70262 0.8687,-32.443 0.6465,-1.0184 4.8123,-1.27508 17.1135,-1.05416 l 16.2593,0.29201 0.527,16.33904 0.5271,16.33904 h 11.0683 11.0685 l 0.5271,-16.33904 0.5271,-16.33904 24.6402,-0.28332 c 17.2907,-0.19881 25.0726,0.0755 26.0897,0.9197 1.1112,0.92231 1.4495,4.8703 1.4495,16.92148 v 15.71861 l 11.332,-0.29925 11.3318,-0.29914 0.527,-16.33904 0.5271,-16.33904 h 16.8662 16.866 l 0.2785,32.23638 c 0.2763,31.97668 0.2594,32.2647 -2.1082,35.74359 -1.3127,1.92886 -3.7257,4.4994 -5.3623,5.71228 -2.942,2.18033 -3.7913,2.20842 -75.3704,2.49286 l -72.3948,0.28768 z"
         id="path1" /></g></g><metadata
     id="metadata2"><rdf:RDF><cc:Work
         rdf:about=""><dc:title>pieces</dc:title></cc:Work></rdf:RDF></metadata></svg>
