<svg version="1.2" xmlns="http://www.w3.org/2000/svg" viewBox="0 0 1024 1024" width="1024" height="1024">
	<title>badma-ai-clear-light</title>
	<style>
		.s0 { fill: #a12cff } 
		.s1 { fill: #8104f5 } 
		.s2 { fill: #000000 } 
	</style>
	<g>
		<path class="s0" d="m496.5 129c-39.2 36.3-71.2 82.6-90.5 131-8.2 20.5-15.9 52.4-14 57.4 1 2.7 11.6 20.4 13.1 22 0.5 0.6 2.8-0.9 5.6-3.5 7.2-6.8 18.5-15 30.8-22.4 8.9-5.4 12.8-8.5 20.2-16.4 19.1-20.3 54.3-46.1 63.1-46.1 4.3 0 7.8 2.4 9.2 6.3 0.6 1.8 1.4 14 1.7 27.5 0.6 23.5 0.7 24.3 2.7 24.8 1.2 0.2 8.3 1.8 15.9 3.3 15.9 3.3 18.7 5 18.7 11 0 2.6-1.2 5.4-4 9.6l-3.9 6 2.1 1.5c14.4 9.9 33.8 26.7 33.8 29.2 0 0.4 0.5 0.8 1 0.8 0.6 0 1-0.5 1-1 0-1.2 15.3-28.6 24.1-43.2 3.3-5.4 5.9-10.4 5.9-11.3 0-1.8-2.5-14.8-4.1-21.5-8.1-32.9-27.1-73.5-49.3-105.4-20.2-28.9-45.2-56.1-66.6-72.3-1.3-1-4.1 1.2-16.5 12.7z"/>
		<path class="s1" d="m268.1 217.3c-19.6 43.3-28.2 77.8-29.8 118.7-0.8 22.3 1.8 52.1 6.3 72.2l1.5 6.6 12.7 8.5c29.6 19.7 50.5 37 74.3 61.4l15.6 16 0.1-14.8c0.3-42.7 12.9-86 34.4-118 3.5-5.2 7.4-10.8 8.7-12.6l2.3-3.1-9.2-15.4c-22.8-38.2-49.5-70.9-78.7-96.6-12.6-11.1-34-28.2-35.3-28.2-0.3 0-1.6 2.4-2.9 5.3z"/>
		<path class="s1" d="m748.9 215.3c-21.9 15.4-48.5 40.2-68 63.2-22.6 26.9-47.3 64.7-63 96.8l-6.2 12.6 1.8 2.8c3 4.5 26 26.8 40.5 39.3 19.5 16.7 25.9 23 28.3 27.5 2.4 4.8 3.2 15.5 2 26.7-0.5 4.3-0.9 7.8-0.9 7.8 0.1 0 7.5-7.3 16.6-16.3 21.4-21 40.7-36.5 67.7-54.1 11.4-7.5 10.4-5.6 13.7-25.1 2.9-17.2 3.9-30.1 3.9-50.5-0.1-40.1-6.5-73.5-21.3-110.5-4.5-11.2-9.9-23.6-10.3-23.4-0.1 0-2.2 1.4-4.8 3.2z"/>
		<path class="s2" d="m510.5 274.2c-17.4 11.8-29.2 22.2-46 40.7-1.6 1.8-7.2 5.7-12.3 8.5-31.5 17.6-53.5 40.9-68.6 72.6-15.3 32.2-22.1 67.5-19.7 102.1 2.1 30 5.9 49.4 15.7 78.4 11.6 34.7 14.8 52.1 14.8 81.5 0.1 21.9-1.2 29.3-8 43.8-1.9 4.2-3.3 7.6-3.2 7.7 0.4 0.4 42.4 22.7 70.8 37.7 43.9 23.2 56.7 29.8 58 29.8 1.5 0 34.3-17.1 73.3-38.3l27.8-15.1-0.6-18.1c-0.4-9.9-1.3-22.6-2.1-28.2-4-29.6-15.9-60-34.2-87.3-12.8-18.9-23.2-30.9-45.3-52.1-38.1-36.5-49.3-51.6-52.2-70.2l-0.6-3.8 6.5 6c15.3 14 35.5 20.3 57.6 18 12.6-1.3 16.4-0.6 34.4 6.3 12.6 4.8 16.5 7.6 24.9 17.8 8 9.6 13.2 13 21.4 13.7 14.3 1.3 36-10.6 42-23.1 2.6-5.3 3.9-12.3 4.7-24.6 1.1-15.7 3-13-28.1-40.1-27.8-24.3-38.8-36.1-48.6-52.2-3.6-5.8-8.9-12.8-12.5-16.3-5.4-5.4-30.5-23.3-34.5-24.6-1-0.3-0.1-2.4 3.6-7.9 2.8-4.1 5.1-7.7 5.3-8 0.1-0.3-7.3-2.1-16.6-3.8-9.2-1.8-17.4-3.6-18.1-4-1-0.6-1-2.9-0.1-11.2 0.7-6.7 0.8-16 0.3-26.1l-0.8-15.7z"/>
		<path class="s0" d="m112 379.4c0.1 31.5 7.5 72.6 18.2 101.6 20.3 55 50.3 94.6 94.8 125.2 43.1 29.7 100.8 45.9 144.9 40.8 4.6-0.5 8.6-1.2 8.8-1.4 1-1-2.9-26.9-5.7-37.8-1.6-6.2-4.9-17.4-7.5-24.8-5.3-15.5-11.1-37.1-12.1-44.8-0.8-6.4-4.2-11.3-20.9-30.7-49.3-57.1-115.6-99.4-204.2-130.5l-16.3-5.7z"/>
		<path class="s0" d="m896 376.7c-23.6 8.2-41.5 15.6-63.5 26.2-62.5 30.3-103.9 61.5-143.6 108.1-20.4 23.9-42.4 59.3-56.4 90.5-4.1 9.2-13.3 34-14 37.8l-0.7 3.4 8.4 1.6c27.3 5.4 60.6 4.9 89.7-1.4 22.9-5 51.8-16.8 74.1-30.4 64.3-39.1 105.8-106.4 117.9-191 1.9-13.1 4.7-49.3 4-49.9-0.2-0.2-7.4 2.1-15.9 5.1z"/>
		<path class="s1" d="m538 502.9c-3.6 0.4-10.1 0.6-14.5 0.3l-8-0.4 25.5 25.4c32.7 32.4 47.6 51.5 61.9 79.1 4.4 8.4 6.3 11.2 6.8 10 7.4-21.4 27-60.1 40.5-80 1.5-2.3 2.8-4.4 2.8-4.6 0-0.3-2.4 0.8-5.2 2.3-8.6 4.6-16 6.3-25.3 5.8-12.9-0.7-22.3-6.2-32.1-18.9-6.1-8-9.6-10.4-21.6-15-11.2-4.4-18.8-5.3-30.8-4z"/>
		<path class="s1" d="m133 546.7c-37 1.3-70.6 5.3-96.7 11.3l-9.3 2.2 2.7 3.6c26.1 35.3 59.7 64.4 94.8 81.9 40.4 20.3 79.4 29.9 134.5 33.3 40.5 2.5 72.2 9.7 108.3 24.5 3.6 1.5 11.1-19.5 12.3-34.6l0.7-7.6-4.9 0.8c-8.2 1.3-35.6 1-48.1-0.6-40.6-5.2-86.5-24.4-121.8-51-18.9-14.2-39.6-35.6-53.5-55.3-5.4-7.8-6.9-9.2-9-9-1.4 0.1-5.9 0.3-10 0.5z"/>
		<path class="s1" d="m869.6 559.1c-39.1 52.4-98.9 89.6-162.6 100.9-17.1 3.1-55 3.9-72.4 1.6-6.6-0.8-12.1-1.4-12.2-1.3-0.1 0.1 0.7 5.1 1.7 11.2 1 6 2.2 18.3 2.5 27.2 0.4 9 1 16.3 1.4 16.3 0.4 0 7.2-2.9 15.1-6.4 36.7-16.2 72.4-25.6 108.4-28.5 7.2-0.6 19.8-1.5 28-2.1 17.8-1.3 33.4-3.4 46.5-6.1 53.6-11.4 99.4-35.3 135.4-70.7 14-13.7 35.8-39.4 34.5-40.6-0.7-0.7-25.5-5.6-37.9-7.6-16.3-2.5-38.1-4.7-55-5.5-7.4-0.3-15.8-0.8-18.6-1.1l-5-0.5z"/>
		<path class="s0" d="m89 646.6c0 0.2 1.9 4.1 4.1 8.6 29.9 59.5 90.3 102.9 170.9 122.8 29.3 7.2 52.5 10 83.2 10 21.5 0 36.2-1.5 54.8-5.6 12.6-2.8 38.1-11 47.5-15.3l6-2.7-41.5-21.1c-22.8-11.6-45.7-23-50.9-25.3-31.5-13.8-65.9-21.7-105-24-60.9-3.6-101.5-14.6-159.8-43.3-5.1-2.5-9.3-4.4-9.3-4.1z"/>
		<path class="s0" d="m921 653.1c-56.3 27.1-95 37.4-154.5 40.9-56.2 3.4-93.7 14.8-154.5 47-7.4 4-20 10.6-28 14.8-16.4 8.5-15.5 8-14.7 8.8 1.4 1.4 21.4 8.9 33.3 12.4 27.1 7.9 48.7 11 78 11 29.3 0 52.9-2.9 81.7-10.1 69.2-17.4 125.5-54.2 157-102.9 6.6-10.3 16.2-28 15-27.9-0.4 0-6.4 2.7-13.3 6z"/>
		<path class="s1" d="m531.7 783.1l-19.7 9.9-19.2-9.6c-16.9-8.5-19.6-9.5-21.8-8.6-1.4 0.6-7.4 3.1-13.5 5.7-28.7 12.3-69 22.4-89.2 22.5-2.9 0-5.3 0.4-5.3 0.9 0 0.9 16.8 16.6 27 25.2 24.1 20.2 61.4 44.8 108.2 71.3l13.8 7.8 12.2-6.8c40.7-22.6 83.5-50.7 107.3-70.3 11.6-9.6 29.5-26.2 29.5-27.3 0-0.4-1.9-0.8-4.1-0.8-6 0-23.6-2.7-36.9-5.7-21.3-4.7-48.8-14-62.1-21-3-1.5-5.6-2.9-5.9-3-0.3-0.1-9.4 4.3-20.3 9.8z"/>
	</g>
</svg>