<svg version="1.2" xmlns="http://www.w3.org/2000/svg" viewBox="0 0 400 400" width="400" height="400">
	<title>New Project</title>
	<style>
		.s0 { fill: #000000 } 
	</style>
	<g id="Layer 1">
		<path class="s0" d="m200.2 133.1c0 0.1-0.1 1.6-0.2 3.3-0.7 7.5-0.6 12.2 0.1 13.1 0.2 0.2 0.7 0.4 1.1 0.5 0.9 0.1 9.8 2.7 10 2.8 0 0.1-1.5 5.8-1.9 6.7 0 0.1 1.1 0.6 2.5 1.1 3.8 1.3 7.7 3 10.6 4.6l2.6 1.4 1.4 3c1.1 2.3 1.7 3.4 2.7 4.6 2.5 3 8.6 8.8 20.3 19.3 4.9 4.5 6.5 6 6.7 6.6 0.2 0.5 0.3 1.1 0.2 2.2-0.1 2 0.1 5.1 0.7 7.3 0.3 1.3 0.3 2.1 0.3 3.3-0.2 1.9-0.2 2-2.1 4.8-1.6 2.3-3.4 4.3-4.7 5.2-0.8 0.6-1.9 0.7-2.4 0.4-0.2-0.1-0.4-0.1-0.5-0.1-0.4 0.4-2.1 0.9-4.9 1.5-2.7 0.6-3 0.6-4.7 0.4-4.6-0.5-8.1-2.8-10.4-6.8-1.4-2.3-3.5-3.7-6.1-4.1-2.1-0.4-3.7-0.1-5.7 0.9-6.6 3.3-13.4 4.2-19.5 2.6-0.8-0.2-1.9-0.6-2.4-0.9-0.9-0.4-0.8-0.3 1.4 1.9 6.9 7.1 20.9 21.9 30.1 36.1 3.8 5.7 5.2 8.2 7.1 12.5 6 13.1 1.7 26.4 9.7 37.5l0.4 5.9-45.3 23.4-39.8-21.6 0.7-7.3c1.4-2.3 1.9-6.3 2.2-11.8 0 0 0.1-3.4-0.3-8-0.3-4.6-2.3-14.7-3.4-18.8-2-7.4-5.3-16.1-7.6-21.4-0.6-1.3-1.3-3.3-1.6-4.3-1.5-5.4-2.6-15.8-2.6-24.7 0-5.3 0.2-7.2 1.5-14.6 1.1-6.1 3.3-14.6 4.9-19.4 2.2-6.2 5.7-11.7 11.1-17.3 8-8.4 14.5-12.6 23.3-14.8 1.6-0.4 2-0.6 2-1.2 0-0.6 1.1-3 2.2-4.8 2-3.2 4.9-6.5 9-10.2 1.1-1 1.3-1.1 1.3-0.8z"/>
		<g id="&lt;Group&gt;">
			<path id="Shape 2" fill-rule="evenodd" class="s0" d="m239.5 236.3c-4.3 5.2-7.4 7.8-8.6 17.1-0.3 2-3.3-3.6-4.8-6-5.9-9.2-7.9-11.6-15.8-19.9-2.2-2.3-5.1-5.2-5.1-5.2 0 0 2.3 0.1 3.9-0.4 1.5-0.6 3.1-0.9 5.5-1.8 2.2-0.9 4.8-1.7 6.8-1.3 2.7 0.4 3.3 1.7 4.6 4 2.4 3.9 7.4 5.7 12 6.3 1.7 0.2 2 0.2 4.7-0.4 2.6-0.6 5.6-1.3 5.6-1.3-1.9 2.2-7 6.6-8.8 8.9z"/>
		</g>
		<g id="&lt;Group&gt;">
			<path id="Shape 1" fill-rule="evenodd" class="s0" d="m152.2 137.3c0.9-45.5 40.5-89 48.5-89.3 8-0.3 48.1 39.5 48.1 84.9 0 4.4-0.1 10-1.6 13.6 0 0-2.6 3.5-7.9 8.7-5.2 5.2-9.2 8.4-9.2 8.4l-5.5-3.1c-2.9-1.6-2.8-1.2-6.6-2.6-1.5-0.4-2.5-0.9-2.5-1 0.4-1 1.9-6.6 1.9-6.7-0.2-0.1-10.4-3.9-11.3-4.1-0.4 0-0.9-0.3-1.1-0.5-0.7-0.9 0.4-12.2 1-19.7 0.2-1.7-2.1-2-2.1-2.1 0-0.3-2.7-0.1-3.8 0.8-4.1 3.7-12.2 12.3-14.2 15.5-1.1 1.8-2.2 4.2-2.2 4.8 0 0.6-0.5 0.4-1.9 1.2-2.9 1.8-8.6 3-15.9 9.2z"/>
		</g>
		<g id="&lt;Group&gt;">
			<path id="Shape 1 copy 7" fill-rule="evenodd" class="s0" d="m85.4 263.8c-29.7-21.2-40.4-60.1-39.2-94.9 33.6 18.3 50.5 21.4 80.3 42.4q7.5 5.3 13.6 10.4c0.3 7.4 1.3 14.9 2.5 19.2 0.2 1 0.9 3 1.6 4.3 2.2 5.3 5.6 14 7.6 21.4 0.5 2 1.3 5.5 1.9 9.1-14.2 10.9-42.5 6.5-68.3-11.9z"/>
			<g id="&lt;Group&gt;">
				<g id="&lt;Group&gt;">
					<path id="Shape 1 copy 9" fill-rule="evenodd" class="s0" d="m107.7 91.9c8.5 1.2 33 41.8 54.2 66.9 0.2 0.3-0.5 0.5-0.8 0.8-5.3 5.6-7.7 8.5-11 15.6-2.1 4.6-5.1 13.4-6.8 21.4-1.5 7.3-2.8 19.5-2.8 19.5 0 0-10.3-6.6-15.2-10.1-12.1-8.5-22.1-14.1-31.9-18.9-6.5-35.8-3.4-68.3 14.3-95.2z"/>
					<path id="Shape 1 copy 10" fill-rule="evenodd" class="s0" d="m294.7 91.9c-8.5 1.2-25.4 43.5-63.2 76.9-0.2 0.2 6.6 7.5 14.4 14.4 3.8 3.4 9.6 8 12.3 11.9 3.2 4.7 1.6 8 2.6 11.2 1.8 5.8 0.4 9.9 0.4 9.9 0 0 11.2-8.2 16.2-11.7 12-8.5 21.8-12.6 31.6-17.4 6.5-35.8 3.5-68.3-14.3-95.2z"/>
				</g>
			</g>
		</g>
		<path id="Shape 1 copy 5" fill-rule="evenodd" class="s0" d="m238.3 268.4c-11.1-17.9 6.8-36 36.7-57.1 29.8-21 46.7-24.1 80.3-42.4 1.2 34.8-9.5 73.7-39.2 94.9-29.7 21.2-66.7 22.5-77.8 4.6z"/>
		<g id="&lt;Group&gt;">
			<path id="Shape 1 copy" fill-rule="evenodd" class="s0" d="m394.1 251c-14.8 23.7-63.9 44.6-95.6 47.1-43 0.8-51.4 10.3-51.4 10.3 0 0-0.2-5-2.3-8-3.1-4.2-4.7-25.3-4.7-25.3 0 0 4.6 4.8 8.2 6.2 15.5 9.9 43.6 4 69.5-14.4 8.4-6 16.3-14.5 23.2-23.9 19.5-0.5 37 3.6 53.1 8z"/>
			<path id="Shape 1 copy 8" fill-rule="evenodd" class="s0" d="m6 250.8c12.8 20 54.5 42.9 91.4 47.3 49.4 3 54.3 13.2 54.3 13.2 0 0 0.4-6 2.5-11.4 1.7-5.4 1.7-15-0.3-19.3-18.8 12.6-47.5 5.2-73.3-13.2-8.5-6-14.9-14.5-21.8-23.9-19.5-0.5-36.7 2.9-52.8 7.3z"/>
		</g>
		<path id="Shape 1 copy 2" fill-rule="evenodd" class="s0" d="m191 337.7c-30.6 13.8-73.5 9.2-106.3-1.7-20.2-6.4-53-31.5-53.8-53.5 59.9 30.6 84.6 14.1 112.9 29.2 14.9 8.4 30.9 17 47.2 26z"/>
		<path id="Shape 1 copy 3" fill-rule="evenodd" class="s0" d="m204.7 336.4c30.6 13.7 73.5 9.2 106.3-1.8 20.3-6.3 53-31.4 53.8-53.4-59.8 30.5-84.6 14-112.9 29.2-14.9 8.4-30.9 17-47.2 26z"/>
	</g>
</svg>