<?xml version="1.0" encoding="UTF-8" standalone="no"?>
<svg
   version="1.2"
   viewBox="-202.99711 -98 473.56149 473.29667"
   width="100"
   height="100"
   id="svg1"
   xmlns="http://www.w3.org/2000/svg"
   xmlns:svg="http://www.w3.org/2000/svg">
  <defs
     id="defs1" />
  <title
     id="title1">pieces</title>
  <style
     id="style1">
		.s0 { fill: #060705 } 
	</style>
  <g
     id="Layer 1"
     transform="translate(-2416.3725,-594.05321)">
    <g
       id="Background">
      <path
         id="Path 1"
         fill-rule="evenodd"
         class="s0"
         d="m 1464.6039,548.67978 c 9.8,0.3 15.5,1 23,3 5.5,1.4 13.8,4.3 18.5,6.3 4.8,2.1 12.5,6.4 17.5,9.7 5.4,3.6 13.3,10.2 20,16.9 7.1,7.1 13.5,14.7 17.7,21.1 3.7,5.5 8.6,14.3 11.1,19.5 2.4,5.2 5.6,13.1 7,17.5 1.5,4.4 3.5,11.8 4.6,16.5 1.1,4.7 2.4,13.7 3,20 0.6,6.3 1.1,16.9 1.1,23.5 0,6.6 -0.7,17.6 -1.6,24.5 -0.8,6.9 -2.5,17.7 -3.8,24 -1.3,6.3 -4.3,18.7 -11,43.5 l -7.6,3.7 c -4.1,2 -10,5.6 -13,8 -3.1,2.4 -7.8,7.4 -15.5,17.7 l -5.2,-10.7 c -2.9,-5.9 -7.6,-13.8 -10.5,-17.7 -2.9,-3.8 -10.6,-12.4 -17.1,-19 -6.5,-6.6 -11.8,-12.3 -11.8,-12.7 0.1,-0.5 -0.3,-0.8 -0.7,-0.8 -0.4,0 -1.6,1.4 -2.7,3.2 -1,1.8 -6.9,8.5 -13,14.8 -6.1,6.3 -13.3,14.4 -15.9,18 -2.7,3.6 -6,8.5 -7.5,11 -1.4,2.5 -6.8,6.6 -6.8,16.5 0,0 -2.6,-4.4 -2.6,-4.5 0,-2.8 -4.9,-6.8 -7.9,-9.6 -2.9,-2.8 -8.5,-7.1 -12.3,-9.7 -3.9,-2.5 -9.7,-5.5 -13,-6.8 -3.3,-1.2 -6.2,-2.3 -6.3,-2.3 -0.2,-0.1 0.6,-3.7 1.7,-8.1 1.1,-4.4 2.7,-9.8 3.6,-12 0.9,-2.2 3.5,-7.6 5.7,-12 2.2,-4.4 6.5,-11.8 9.5,-16.5 3.1,-4.7 13.5,-19.7 23.2,-33.5 9.8,-13.7 19.8,-27.9 22.5,-31.5 2.6,-3.6 5.3,-8.7 6.1,-11.5 0.8,-2.7 1.4,-7.2 1.4,-10 -0.1,-2.7 -0.5,-6.3 -0.8,-8 -0.5,-2.5 -0.8,-1.8 -1.9,4.5 -0.7,4.1 -2.4,10.4 -3.7,14 -1.5,4.1 -4.2,8.4 -7.2,11.9 -3.3,3.6 -6.9,6.3 -11.3,8.4 -3.6,1.6 -13.5,4.7 -22,6.9 -9.7,2.4 -16.9,4.8 -19.3,6.3 -2,1.4 -5.1,4.4 -6.8,6.8 -1.7,2.3 -4.4,6.8 -6,10 -1.6,3.1 -4.2,7.2 -5.8,9 -1.8666,2.13333 -4.1,3.43333 -6.7,3.9 -2.2,0.4 -6.6,0.2 -9.9,-0.3 -3.3,-0.6 -8.4,-2.1 -11.3,-3.5 -3.4,-1.6 -6.1,-3.7 -7.7,-6.1 -1.3,-2.1 -3.2,-5.8 -4,-8.3 -0.9,-2.5 -1.9,-6.7 -2.2,-9.5 -0.7,-4.9 -0.5,-5.3 8.4,-20.5 4.9,-8.5 11.5,-20.2 14.6,-26 3,-5.8 8.1,-16.3 11.2,-23.5 3.1,-7.1 7.1,-15.5 8.9,-18.5 1.8,-3 5.6,-7.5 8.3,-10 2.7,-2.5 7.1,-5.6 9.8,-7 2.8,-1.4 5.2,-2.6 5.5,-2.7 0.2,-0.1 -1.1,-1.9 -3,-4 -1.8,-2.1 -4.2,-5.6 -5.2,-7.8 -1,-2.2 -1.8,-5.9 -1.8,-8.2 0,-2.4 0.6,-5.8 1.3,-7.5 0.8,-1.8 3,-4.8 5,-6.5 2,-1.8 5.8,-4.4 8.4,-5.7 2.6,-1.3 7.9,-3.3 11.8,-4.5 3.8,-1.2 9.7,-2.5 13,-3.1 3.3,-0.5 11.8,-0.7 19,-0.5 z m 448.6518,21.60349 0.2,14 c 0.1,7.7 0.5,15 0.8,16.3 0.5,2.1 0.9,2.2 11.5,2.2 10,0 11.1,-0.2 12,-2 0.5,-1.1 0.9,-8.3 0.6,-30.2 l 25.9,-0.3 c 14.3,-0.2 26.8,-0.2 27.7,0 1.6,0.5 1.7,1.9 1.5,15.4 -0.2,11.2 0.1,15.3 1.1,16.3 0.9,0.9 4.1,1.2 11,1.1 6.3,-0.1 10.1,-0.7 11,-1.5 0.9,-1 1.2,-5.4 1.2,-31.8 h 29 v 34.5 c 0,29.3 -0.3,34.7 -1.5,36 -0.9,0.8 -2.5,1.7 -3.8,2 -1.2,0.3 -36.1,0.4 -77.4,0.3 -70.8,-0.3 -75.4,-0.4 -77,-2.1 -1.6,-1.6 -1.9,-5.2 -2.8,-34.5 -0.5,-18 -0.6,-33.5 -0.2,-34.5 0.6,-1.6 2,-1.7 29.2,-1.2 z m 539.4377,22.1522 c 2.2,-0.1 6.7,0.3 10,0.9 3.3,0.5 8.9,2.1 12.5,3.5 3.5,1.4 9,4.5 12.1,6.8 3.2,2.3 7.9,6.9 10.5,10.2 2.7,3.3 5.9,8.3 7.1,11 1.2,2.8 2.9,8.2 3.8,12 1.2,4.9 1.5,9.4 1.1,15 -0.3,4.6 -1.5,10.8 -2.8,14.5 -1.3,3.6 -3.8,8.8 -5.5,11.5 -1.8,2.8 -5.4,7.1 -8,9.7 -2.7,2.6 -7.5,6.3 -10.8,8.3 -3.3,2 -9.2,4.6 -13,5.7 -5,1.6 -9.6,2.2 -16,2.2 -6.4,0 -11,-0.6 -16,-2.2 -3.9,-1.2 -9.9,-3.8 -13.4,-5.9 -3.5,-2.1 -8.9,-6.5 -12,-9.8 -3.1,-3.3 -7.1,-9 -8.9,-12.5 -1.7,-3.6 -3.9,-10.1 -4.8,-14.5 -1,-5.3 -1.4,-10.3 -1,-15 0.3,-3.8 1.3,-9.2 2.1,-12 0.9,-2.7 3,-7.7 4.8,-11 1.7,-3.3 5.9,-8.7 9.2,-12 3.9,-3.9 8.6,-7.3 13.5,-9.7 4.1,-2.1 10.6,-4.4 14.5,-5.2 3.8,-0.8 8.8,-1.5 11,-1.5 z m -486.6377,58.3478 c 48.1,0 61.4,0.2 62.4,1.2 0.7,0.7 1.3,3.1 1.3,5.3 0.1,2.5 -0.6,4.6 -1.6,5.5 -0.9,0.8 -2.6,3.3 -3.7,5.5 -1.9,3.9 -1.9,4.3 -0.2,18.5 0.9,8 3.4,24.9 5.5,37.5 2.1,12.7 5.5,30.7 7.5,40 2.1,9.4 4,17.9 4.2,19 0.4,1.5 -0.7,2.9 -4.4,5.7 -2.6,2 -6.4,5.4 -8.4,7.5 -2,2.1 -5.2,6.1 -7.2,8.8 -1.9,2.8 -4.9,7.6 -9.7,16.5 l -3.9,-7.7 c -2.1,-4.3 -5.4,-10.3 -7.3,-13.3 -1.9,-3 -5.2,-7.5 -7.3,-10 -2,-2.5 -9.2,-10 -28,-29.1 l -2,2.8 c -1.1,1.5 -6.7,7.8 -12.5,13.8 -5.8,6.1 -12.9,14.2 -15.8,18 -2.8,3.9 -7,10.8 -13.5,24 l -3.4,-6.5 c -1.9,-3.6 -5.1,-8.7 -7.2,-11.5 -2.1,-2.7 -6.9,-7.6 -17.6,-16.5 l 2.2,-9.3 c 1.2,-5 3.3,-15.3 4.6,-22.7 1.4,-7.4 3.4,-20.9 4.6,-30 1.1,-9.1 2.5,-22.6 3,-30 0.6,-7.4 1.1,-16.1 1.1,-19.2 0,-4.2 -0.7,-7.1 -2.5,-10.5 -1.4,-2.7 -2.5,-6 -2.5,-7.5 0,-1.6 0.2,-3.5 0.6,-4.3 0.5,-1.3 8.3,-1.5 61.7,-1.5 z m 486.1377,57.7522 c 11.8,-0.1 28.4,0.3 37,0.7 11.1,0.6 16.4,1.3 18.7,2.5 1.8,0.9 3.7,2.7 4.3,4.1 0.5,1.4 1,3.5 1,4.8 0,1.5 -2.8,4.8 -8.5,10.2 -7.2,6.8 -8.6,8.6 -9.1,12 -0.3,2.3 0.1,6.9 1,11 0.9,3.9 3.4,10.6 5.6,15 2.1,4.4 9.1,15 15.4,23.5 6.4,8.5 13.3,19.1 15.5,23.5 2.1,4.4 4.7,10.9 5.6,14.5 1.1,4.3 1.5,8.9 1.2,13.5 -0.2,4.2 -1.3,9 -2.6,12 -1.2,2.8 -3.4,6.3 -4.9,7.8 -1.5,1.6 -4.9,4 -7.5,5.3 -2.6,1.3 -6.9,2.9 -9.5,3.5 -3,0.6 -25.3,1 -62,1 -56.4,-0.1 -57.3,-0.1 -63,-2.3 -3.6,-1.4 -7.5,-3.9 -10.3,-6.7 -3.1,-3 -5.4,-6.6 -6.8,-10.3 -1.3,-3.6 -2.1,-8.1 -2.1,-12 0,-3.5 0.6,-9 1.5,-12.3 0.8,-3.3 3.3,-9.6 5.4,-14 2.2,-4.4 8.5,-14.3 14,-22 5.5,-7.7 11.4,-16.5 13.3,-19.5 1.8,-3 4.3,-8.4 5.6,-12 1.3,-3.6 2.8,-9.1 3.3,-12.2 0.7,-4.8 0.6,-6.5 -0.9,-10 -1.1,-2.6 -3.7,-5.7 -6.3,-7.7 -2.4,-1.9 -5.9,-4.8 -7.7,-6.5 -2,-1.9 -3.3,-4.1 -3.3,-5.6 0.1,-1.4 0.7,-3.5 1.6,-4.7 0.8,-1.3 2.9,-3.1 4.7,-4 2.3,-1.1 7.1,-1.9 15.8,-2.3 6.8,-0.4 22.1,-0.7 34,-0.8 z m -485.1377,66.8478 c 1.2,0.8 5.7,4.9 10.1,9.2 4.3,4.2 10.4,11.1 13.5,15.2 3.1,4.1 7.5,11.3 9.8,16 2.2,4.7 4.8,11.2 5.7,14.5 0.8,3.3 1.5,9.4 1.5,13.5 0,4.1 -0.6,10 -1.4,13 -0.8,3 -2.7,8 -4.2,11 -1.5,3 -4.1,7 -5.8,8.9 -1.7,1.9 -6,6 -16,14.8 l 34.5,0.7 c 18.9,0.4 36.9,1.2 40,1.7 3,0.6 7.7,2.3 10.4,3.8 2.7,1.4 6.6,4.6 8.7,7.1 2.2,2.5 4.6,6.5 5.4,9 0.8,2.5 1.5,7.7 1.5,11.5 0,4.2 -0.5,7.5 -1.2,8.3 -1,0.9 -24.9,1.2 -112.8,1.2 -103.3,0.1 -111.6,0 -113,-1.6 -1.2,-1.3 -1.4,-3.4 -1,-9.8 0.4,-5.9 1.3,-9.6 3.3,-13.8 1.9,-4.1 4.1,-6.9 7.4,-9.3 2.6,-2 7.2,-4.6 10.3,-5.8 5.2,-2 7.6,-2.2 79.2,-3.2 l -4.4,-3.1 c -2.4,-1.7 -7.3,-6 -10.9,-9.5 -5.2,-5 -7.1,-7.8 -9.3,-13.1 -1.4,-3.8 -3.2,-10.1 -3.8,-14 -1,-6.1 -0.9,-8.7 0.5,-15.8 0.9,-4.7 2.9,-11.6 4.5,-15.5 1.5,-3.8 4.5,-9.7 6.6,-13 2.1,-3.3 5.9,-8.5 8.4,-11.5 2.5,-3 8.1,-9.2 12.5,-13.7 7.5,-7.8 8,-8.1 10,-6.7 z m -476.3518,1.79651 c 0.5,0 5.2,4.4 10.5,9.7 5.2,5.4 11.4,12.3 13.6,15.3 2.3,3 5.9,8.9 8.1,13 2.1,4.1 4.7,11.1 5.7,15.5 1.3,5.9 1.6,10.9 1.3,19 -0.3,9.7 -0.7,11.8 -3.4,17.5 -1.7,3.6 -4.8,8.5 -7,10.9 -2.2,2.4 -7.1,6.6 -17.9,14.6 l 72,1 6.4,3 c 4.2,2 8.1,4.8 11.2,8.3 3.4,3.6 5.3,6.8 6.4,10.5 0.8,2.8 1.5,7.3 1.5,10 0,2.6 -0.5,5.8 -2,9.7 h -211 l -1.5,-2.2 c -0.9,-1.3 -1.5,-4.3 -1.6,-6.8 0,-2.5 0.9,-7.4 2,-11 1.4,-4.8 3.1,-7.7 6.3,-11 2.3,-2.4 6.5,-5.4 9.3,-6.7 2.7,-1.2 7.4,-2.7 10.5,-3.3 3.1,-0.6 19.2,-1 68.5,-1 l -6.5,-4.7 c -3.6,-2.7 -8.7,-6.9 -11.3,-9.5 -2.6,-2.7 -5.9,-7 -7.2,-9.8 -1.4,-2.7 -3.2,-7.6 -4,-10.7 -0.9,-3.2 -1.5,-8.7 -1.5,-12.3 0,-3.6 0.9,-10.1 2,-14.5 1.1,-4.4 3.8,-11.4 6,-15.5 2.2,-4.1 6.8,-11.1 10.3,-15.5 3.6,-4.4 10.1,-11.5 14.4,-15.7 4.4,-4.3 8.4,-7.8 8.9,-7.8 z m 365.7518,3.60349 c 1.5,0 6.4,0.9 10.8,2 4.4,1.2 11.1,3.8 14.9,5.8 3.8,2 9.9,6.2 13.5,9.2 3.6,3.1 9,8.9 11.9,13 2.9,4.1 6.2,10 7.4,13 1.6,4.5 2.1,8.1 2.2,19.5 0.2,11.2 0.7,15.1 2.3,19.5 1.1,3 3,7.5 4.2,10 1.3,2.5 4.4,6.6 11.6,14 h -16 c -8.8,0 -19,-0.5 -22.5,-1.1 -3.6,-0.5 -9.5,-2.4 -13,-4 -4,-1.9 -8.4,-5.1 -11.5,-8.3 -2.8,-2.8 -6.5,-7.9 -8.3,-11.1 -1.7,-3.3 -3.7,-8.7 -4.3,-12 -0.6,-3.3 -1.4,-17 -1.8,-30.5 -0.7,-21.8 -1.1,-25.2 -3.1,-30.5 -1.2,-3.3 -2,-6.6 -1.6,-7.2 0.3,-0.7 1.8,-1.3 3.3,-1.3 z m 219,0.1 c 1.8,0 3.5,0.5 3.8,1.2 0.4,0.6 -0.1,4.6 -1.1,8.7 -1.1,5 -1.9,15 -2.5,30.5 -0.5,15 -1.3,25.3 -2.3,29.8 -0.9,3.7 -2.9,8.8 -4.4,11.4 -1.5,2.6 -5.2,7.4 -8.2,10.6 -3.5,3.7 -7.7,7 -11.5,8.8 -3.3,1.6 -9.2,3.3 -13,3.9 -3.9,0.5 -14.6,1 -40.5,1 l 4.1,-3.7 c 2.2,-2.1 5.4,-5.8 7,-8.3 1.6,-2.5 4.1,-8.1 5.5,-12.5 1.9,-5.9 2.7,-10.8 3,-18.7 0.3,-9 0.8,-11.9 3.2,-17.5 1.6,-3.8 4.4,-9.3 6.4,-12.3 1.9,-3 5.7,-7.9 8.4,-10.9 2.7,-2.9 7.6,-7.4 10.9,-9.8 3.3,-2.5 8.7,-5.8 12,-7.3 3.3,-1.6 8.2,-3.3 11,-3.8 2.7,-0.5 6.4,-1 8.2,-1.1 z m -693.4518,17.29651 c 2.8,0 8.6,0.7 12.8,1.6 4.3,0.9 10.9,3 14.8,4.8 3.8,1.8 9.7,5.3 13,7.8 3.3,2.4 7.6,6.4 9.7,8.9 2,2.4 4.8,6.9 6.2,9.9 2,4.3 2.7,7.6 3,15 0.3,5.2 1.2,12 2.1,15 0.9,3 3.3,8.6 5.3,12.4 2,3.8 5.1,8.2 10.2,12.6 h -15.8 c -8.6,0 -18.2,-0.4 -21.2,-1 -3.1,-0.6 -8.2,-2.3 -11.5,-3.9 -3.4,-1.6 -8,-5.1 -10.6,-7.8 -2.5,-2.6 -5.9,-7 -7.5,-9.8 -1.6,-2.7 -3.9,-7.9 -5.2,-11.5 -1.5,-4.1 -3,-11.5 -3.9,-20 -0.9,-9.2 -2.4,-16.4 -4.4,-22.5 -1.7,-4.9 -2.8,-9.6 -2.5,-10.2 0.3,-0.8 2.5,-1.3 5.5,-1.3 z m 217.3,0.1 c 1.5,0 2.9,0.2 3.1,0.7 0.3,0.4 -0.4,4.8 -1.4,9.7 -1,5 -2.6,13.7 -3.4,19.5 -0.9,5.8 -2.3,13.4 -3.2,17 -0.9,3.6 -2.6,8.8 -3.8,11.5 -1.2,2.8 -4,7.8 -6.3,11.3 -2.3,3.4 -6.4,7.8 -9,9.7 -2.6,1.9 -7.7,4.5 -11.2,5.6 -5.2,1.8 -10,2.3 -23.8,2.8 -9.5,0.3 -17.2,0.4 -17.3,0.1 0,-0.3 1.2,-1.6 2.6,-3 1.5,-1.4 4.2,-5.5 6.1,-9.2 1.8,-3.8 4,-9.6 4.9,-13 0.8,-3.5 1.5,-10.6 1.5,-15.8 0,-8.4 0.3,-10.1 2.7,-14.9 1.5,-3 5.3,-8.1 8.4,-11.5 3,-3.3 8.4,-8 12,-10.3 3.5,-2.3 9.1,-5.2 12.4,-6.4 3.3,-1.2 9.8,-2.5 14.5,-2.9 4.6,-0.4 9.7,-0.8 11.2,-0.9 z m 850.3895,83.15569 c 37.7,0 70.9,0.4 76,0.9 5.4,0.6 11,1.9 14,3.3 2.7,1.3 7,4.1 9.5,6.4 2.7,2.4 5.4,6.2 6.8,9.4 1.5,3.5 2.5,7.9 2.7,12.4 0.3,4.9 -0.1,7.7 -2.5,11.5 h -201 l -1.7,-2.7 c -1.3,-2.2 -1.6,-4.3 -1.2,-9.8 0.4,-4.2 1.5,-9.1 3,-12.4 1.4,-3.2 4.3,-7.2 7.1,-9.7 2.6,-2.4 6.5,-5.1 8.5,-6 2.1,-0.9 5.6,-2 7.8,-2.4 2.2,-0.4 34.1,-0.8 71,-0.9 z M 1001.5712,550.67109 c 3.8,0.3 5.5,1 7.2,3 1.5,1.7 2.3,3.9 2.3,6.4 0,2.3 -0.6,4.3 -1.6,5.2 -1,0.8 -2.8,2 -6.6,3.5 l 4.5,6 c 2.4,3.3 6.9,8.2 9.8,10.9 5.1,4.6 5.6,4.9 9.4,4.3 2.9,-0.5 5.6,-2.2 10.3,-6.4 3.5,-3.2 7.7,-6.7 9.5,-7.7 1.7,-1.1 4.6,-2 6.4,-2 1.8,-0.1 4,0.7 5,1.7 1.6,1.5 1.6,2.2 0.5,6.2 -0.7,2.5 -3,8.7 -5.2,13.8 -2.1,5 -5.1,13.5 -6.5,18.7 -1.5,5.2 -3.1,10.5 -3.6,11.8 -0.5,1.2 -2.1,2.7 -3.4,3.2 -1.5,0.6 -17.6,1 -40.79997,1 -28.7,0 -38.9,-0.3 -40.7,-1.3 -1.66667,-0.8 -2.93333,-2.7 -3.8,-5.7 -0.8,-2.5 -2.3,-7.4 -3.4,-11 -1.1,-3.6 -4,-11.2 -6.5,-17 -2.4,-5.8 -4.9,-12.2 -5.4,-14.2 -0.7,-3 -0.6,-4.1 0.6,-5.3 0.9,-0.8 2.9,-1.5 4.5,-1.5 1.7,0 4.4,0.6 6.2,1.3 1.8,0.8 6.8,4.6 11,8.5 5.7,5.3 8.5,7.2 10.5,7.2 1.5,0 4,-0.8 5.4,-1.8 1.5,-0.9 4.4,-3.7 6.6,-6.2 2.2,-2.5 5.6,-6.7 11.4,-14.5 l -3.6,-2.7 c -2.5,-2 -3.5,-3.6 -3.6,-5.5 0,-1.6 0.9,-4.1 2.1,-5.6 1.1,-1.6 3.1,-3.3 4.3,-3.8 1.2,-0.5 4.4,-0.7 7.19997,-0.5 z M 512.5,541.64246 c 0.3,0 3.1,4.6 6.2,10.2 3.1,5.7 7.1,13.5 8.9,17.3 1.7,3.9 4.3,10.2 5.6,14 1.3,3.9 2.9,10.6 3.5,15 0.9,6.1 0.8,9.7 -0.1,15 -0.7,3.9 -2.4,9.9 -3.8,13.5 -1.6,4 -4.4,8.3 -7.2,11.2 -4.4,4.7 -4.6,4.8 -10.8,4.8 -3.4,0 -7.8,-0.7 -9.7,-1.5 -2.3,-1 -4.8,-3.4 -7,-6.7 -1.9,-2.9 -4.5,-8 -5.7,-11.3 -1.9,-5 -2.2,-8.1 -2.2,-19 0,-12.2 0.2,-13.5 3.3,-22 1.8,-4.9 6.6,-16.1 10.8,-24.7 4.1,-8.7 7.8,-15.8 8.2,-15.8 z M 31.6,591.17123 c 1.3,0 5.6,1.5 9.5,3.4 3.8,1.8 10.1,5.6 14,8.3 3.8,2.8 9.6,7.4 12.9,10.4 3.2,3 8,8.1 10.6,11.4 2.6,3.3 6.6,9.4 8.8,13.5 2.2,4.1 5.2,11.3 6.5,16 1.4,4.7 2.8,11.9 3.2,16 0.4,4.3 0.2,11.1 -0.5,16 -0.6,4.7 -3.2,14.6 -5.6,22 -3.7,11.2 -4.5,14.8 -4.5,21 0,4.1 0.7,11.3 1.5,16 0.8,4.7 3.1,13.2 5.1,19 2,5.8 5.2,13.4 10.4,23.5 l -8.7,6.6 c -4.8,3.6 -11.1,9.3 -14.1,12.5 -3.1,3.4 -7,9.3 -9.2,13.9 -2.1,4.4 -5.9,15.2 -8.5,24 -2.6,8.8 -6.1,19.2 -7.9,23 -1.7,3.9 -4.7,8.7 -6.6,10.9 -1.9,2.1 -4.7,4.5 -6.2,5.2 -1.5,0.8 -5.3,1.4 -8.5,1.4 -4.3,0 -7.1,-0.7 -11.1,-2.7 -3,-1.6 -6.7,-4.4 -8.2,-6.3 -1.5,-1.9 -4,-6.2 -5.5,-9.5 -1.5,-3.3 -4,-12.3 -5.6,-20 -1.7,-8.7 -4,-16.5 -5.9,-20.5 -1.7,-3.6 -5,-9.2 -7.4,-12.5 -2.3,-3.3 -7.1,-8.7 -10.7,-12 -3.5,-3.3 -8.6,-7.5 -11.3,-9.3 -2.8,-1.8 -5.4,-3.3 -5.8,-3.5 -0.4,-0.1 1.3,-5.4 3.8,-11.7 2.6,-6.3 5.9,-16.4 7.5,-22.5 1.5,-6 3.3,-15.5 5.2,-31 l -3.7,-11.5 c -1.9,-6.3 -4.3,-15.1 -5.2,-19.5 -1.2,-6 -1.5,-11.3 -1.1,-21 0.4,-10.3 1.1,-14.4 3,-20 1.4,-3.8 3.9,-9.7 5.5,-13 1.7,-3.3 5.1,-8.7 7.5,-12 2.5,-3.3 7.6,-8.9 11.4,-12.5 3.8,-3.6 10,-8.8 13.9,-11.5 3.8,-2.8 9.7,-6.5 13,-8.2 3.3,-1.8 7.1,-3.3 8.5,-3.3 z m 436.5,-24.52877 c 0.3,0 2.2,0.8 4.2,1.9 2.1,1 6.2,4 14.4,11.6 l -2.2,8.5 c -1.8,7.1 -2.1,10.2 -1.6,18.5 0.3,5.5 1.2,12 2,14.5 0.8,2.5 2.4,6.5 3.7,9 1.2,2.5 2.9,5.3 3.8,6.3 0.9,0.9 1.4,2 1.2,2.2 -0.3,0.3 -2.3,0.1 -4.5,-0.4 -2.2,-0.5 -6.3,-2.5 -9,-4.3 -2.7,-1.8 -6.2,-5.1 -7.7,-7.3 -1.6,-2.2 -3.8,-7.6 -4.9,-12 -1.3,-4.9 -2.3,-12.8 -2.7,-20.5 -0.3,-8.2 -0.1,-14.9 0.8,-19.5 0.7,-3.8 1.4,-7.3 1.7,-7.7 0.2,-0.5 0.6,-0.8 0.8,-0.8 z m 90.6,1.7 c 0.4,1 1.4,5.9 2.4,10.8 1.3,6.7 1.6,11.5 1.1,18.5 -0.4,5.2 -1.3,12.3 -2.1,15.8 -0.9,3.4 -2.4,7.9 -3.4,10 -1,2 -3.9,5.5 -6.3,7.6 -2.4,2.2 -6.6,5 -9.3,6.3 -2.8,1.2 -5.6,2.3 -6.3,2.3 -0.8,0 -0.3,-1.8 1.4,-5.2 1.5,-2.9 3.5,-7.8 4.6,-10.8 1.2,-3.5 2.1,-9.2 2.4,-16 0.4,-8.2 0.1,-12.3 -3.3,-26.5 l 3.1,-3.4 c 1.7,-1.9 5.8,-5.2 9,-7.3 5.4,-3.5 6.1,-3.7 6.7,-2.1 z m -122.9,14.5 c 3.2,0.4 7.9,1.9 10.5,3.2 2.6,1.3 6,3.7 7.5,5.3 2.2,2.3 3.1,4.8 4.7,13.3 1.1,5.8 3.1,13.4 4.3,16.9 1.3,3.4 3.6,7.9 5.3,9.9 1.6,2 4.8,4.9 7,6.4 2.2,1.6 3.3,2.8 2.5,2.8 -0.9,0 -3.8,-0.6 -6.5,-1.3 -2.8,-0.8 -7.6,-2.6 -10.8,-4 -3.1,-1.5 -8,-4.8 -10.8,-7.4 -2.8,-2.7 -6.4,-7 -8,-9.8 -1.5,-2.7 -4.3,-9 -6.2,-14 -1.9,-4.9 -4.4,-10.9 -5.6,-13.2 -1.2,-2.4 -2.2,-5.2 -2.3,-6.2 -0.1,-1.1 0.4,-2.1 1.2,-2.3 0.8,-0.3 4.1,-0.1 7.2,0.4 z m 158,-1.1 c 2.6,-0.1 4.8,0.2 4.8,0.7 0,0.4 -2.3,6.8 -5.1,14.2 -2.8,7.4 -6.7,16.6 -8.7,20.4 -2.1,3.8 -5.5,9 -7.7,11.4 -2.2,2.5 -6.1,5.6 -8.5,7 -2.5,1.5 -7.1,3.4 -10.3,4.4 -3.1,1 -7,1.8 -8.5,1.8 -2.7,0.1 -2.7,0 1.3,-2.8 2.2,-1.5 5.7,-4.8 7.7,-7.3 2.1,-2.4 4.7,-7.1 5.8,-10.4 1.2,-3.3 2.7,-10.9 3.5,-17 1.3,-9.7 1.8,-11.3 4.2,-13.8 1.5,-1.6 4.1,-3.6 5.8,-4.5 1.6,-0.8 4.8,-2.1 7,-2.8 2.2,-0.7 6.1,-1.3 8.7,-1.3 z m 403.77123,56.72863 c 16.99997,-0.1 34.99997,0.3 39.99997,0.8 5.3,0.6 10.2,1.7 12,2.8 1.6,1 3.5,3 4.2,4.5 0.8,1.7 1,3.9 0.5,6 -0.5,1.7 -2.5,5.2 -4.6,7.7 -2,2.5 -4.6,6.9 -5.7,9.8 -1,2.8 -2.2,9.1 -2.6,14 -0.3,4.9 -0.1,13.3 0.6,19.2 0.7,5.8 2.5,12.6 4.1,20 1.7,7.4 5,19.4 7.4,26.5 2.4,7.2 6.9,18.5 15.6,37.5 l -3.7,2.8 c -2,1.5 -6.7,6.3 -10.6,10.7 -3.8,4.4 -8,10 -9.2,12.5 -1.3,2.5 -3.9,9.7 -5.8,16 -1.9,6.3 -4.9,16.9 -6.6,23.5 -1.8,6.6 -4.2,14.3 -5.5,17 -1.2,2.8 -3.8,6.8 -5.7,8.9 -1.9,2.2 -4.9,4.5 -6.7,5.3 -2.1,0.8 -7.6,1.3 -15.69997,1.3 -9,0 -13.6,-0.4 -16.3,-1.5 -2,-0.9 -5.4,-3.3 -7.5,-5.3 -2.3,-2.3 -5.1,-6.8 -7.2,-11.7 -1.8,-4.4 -5.7,-15.9 -8.5,-25.5 -2.9,-9.6 -6.5,-20.9 -8.2,-25 -1.7,-4.1 -4.3,-9.3 -5.8,-11.5 -1.5,-2.2 -4.5,-5.6 -6.7,-7.5 -2.1,-1.9 -5.5,-4.6 -7.6,-6 -2,-1.4 -3.6,-2.7 -3.4,-3 0.1,-0.3 2.8,-5.7 5.9,-12 3,-6.3 7.3,-16.4 9.5,-22.5 2.2,-6 5.6,-17.3 7.6,-25 1.9,-7.7 4,-18 4.7,-23 0.7,-5.2 1,-11.1 0.8,-19.5 -0.4,-13.2 -0.7,-15 -3,-19.5 -1.4,-2.7 -3.4,-5.7 -4.3,-6.5 -1,-0.8 -2.4,-2.7 -3.1,-4.2 -0.8,-1.6 -1.4,-4.4 -1.4,-6.3 0,-2.5 0.8,-4.4 2.7,-6.4 1.9,-2 4.1,-3 7.3,-3.5 2.4,-0.3 6,-0.7 8,-0.9 1.9,-0.2 17.4,-0.4 34.5,-0.5 z M 560.2,654.44246 c 4.2,4.8 5.4,17.9 6.8,24.2 1.4,6.3 7.5,47.8 9.9,55.5 2.4,7.7 5.4,22.4 9,32.8 3.7,10.3 6.7,19.5 6.7,20.5 0,1.1 -2.3,2.9 -6.8,5.1 -4.8,2.5 -9.4,6.1 -15.8,12.5 -6,6.1 -10.1,11.2 -15.4,21.6 l -2.9,-5.7 c -1.6,-3.2 -5.1,-8.7 -7.7,-12.3 -2.6,-3.6 -9.1,-11 -14.4,-16.5 -5.4,-5.5 -11.4,-12.1 -13.4,-14.7 -3.5,-4.7 -3.7,-4.7 -4.8,-2.5 -0.6,1.2 -6.2,7.4 -12.3,13.7 -6.1,6.3 -13.4,14.7 -16.3,18.5 -2.8,3.9 -6.6,9.7 -11.4,19 l -2.7,-5 c -1.5,-2.7 -4.7,-7.7 -7.2,-10.9 -2.4,-3.3 -7.4,-8.4 -10.9,-11.3 -3.6,-2.9 -8.9,-6.6 -17.2,-10.8 l 0.6,-4.5 c 0.3,-2.5 2.8,-10.8 5.5,-18.5 2.7,-7.7 6.4,-26 9.6,-34.5 3.1,-8.5 4.7,-19.5 6.1,-24.5 1.3,-4.9 6.2,-48.6 10.4,-51.9 7.3,-5.8 22.9,-1.3 49,-1.5 25.3,-0.1 41.3,-3.1 45.6,1.7 z m 329.57123,125.82863 c 1.5,0 5.4,0.7 8.5,1.5 3.2,0.8 8.1,2.7 11,4.1 2.9,1.5 8.4,4.8 12.3,7.5 3.8,2.6 9.5,7.4 12.6,10.6 3.1,3.2 6.9,8.5 8.6,11.8 1.6,3.3 4.1,9.4 5.6,13.5 1.4,4.1 4.6,14 7.2,22 2.6,8 5.7,16.5 7,19 1.2,2.5 4.1,6.6 6.4,9.3 2.2,2.6 4.1,4.9 4.1,5.2 0,0.3 -8.2,0.2 -18.3,-0.1 -10.6,-0.3 -20.7,-1.2 -24.2,-2 -3.3,-0.9 -8.3,-2.7 -11,-4.2 -2.8,-1.5 -7.3,-4.9 -10.1,-7.7 -2.7,-2.7 -6.3,-7.2 -7.8,-10 -1.5,-2.7 -3.6,-7.9 -4.7,-11.5 -1,-3.6 -2.4,-10.5 -2.9,-15.5 -0.6,-4.9 -1,-12.1 -1,-16 0,-3.8 -0.7,-10.6 -1.5,-15 -0.8,-4.4 -1.9,-9.3 -2.4,-11 -0.5,-1.6 -1.5,-4.1 -2.1,-5.5 -0.7,-1.4 -1,-3.3 -0.7,-4.2 0.4,-1.1 1.7,-1.8 3.4,-1.8 z m 216.99997,1.1 c 2.9,-0.1 5.5,0.4 5.8,0.9 0.2,0.6 -0.4,3.4 -1.4,6.3 -1,2.8 -2.4,9.9 -3,15.7 -0.6,5.8 -1.5,16.4 -2.1,23.5 -0.5,7.2 -1.7,15.7 -2.5,19 -0.9,3.3 -3.1,9.2 -4.9,13 -2.3,4.8 -5.3,8.8 -9.3,12.5 -3.9,3.8 -7.8,6.3 -11.8,7.9 -3.3,1.2 -9.6,2.6 -14,3.1 -4.4,0.5 -14.9,1.1 -38.5,2 l 3.5,-4.2 c 2,-2.4 4.7,-6.8 6.1,-9.8 1.5,-3 4.2,-11.1 6.1,-18 1.9,-6.9 5,-17.2 6.9,-23 1.9,-5.8 4.7,-12.7 6.3,-15.5 1.6,-2.7 5.5,-7.9 8.7,-11.4 3.2,-3.5 8.8,-8.3 12.4,-10.6 3.5,-2.4 8.7,-5.3 11.5,-6.5 2.7,-1.2 7.2,-2.8 10,-3.5 2.7,-0.8 7.3,-1.4 10.2,-1.4 z m -594.0712,4.77137 10.7,11 c 5.9,6.1 12.7,13.9 15.1,17.5 2.5,3.6 5.7,9.1 7.3,12.3 1.5,3.1 3.4,8.5 4.3,12 0.8,3.4 1.5,8.9 1.5,12.2 0,3.3 -0.7,8.5 -1.6,11.5 -0.9,3 -2.6,7.3 -3.7,9.5 -1.1,2.2 -3.4,5.8 -5.1,7.9 -1.7,2.2 -6.1,5.9 -16.1,12.8 l 33,-0.7 c 21.9,-0.4 35.2,-0.3 39.7,0.4 3.7,0.6 9,2.2 11.8,3.6 2.7,1.4 6.6,4.2 8.7,6.3 2,2 4.7,6 5.9,8.7 1.9,3.9 2.4,6.8 2.4,13.3 0,6.2 -0.4,8.6 -1.6,9.7 -1.4,1.3 -15.2,1.5 -221.4,1.5 l -1.7,-2.7 c -1.3,-2.2 -1.6,-4.3 -1.2,-9.8 0.3,-4 1.5,-9.1 2.8,-12 1.2,-2.7 3.6,-6.5 5.4,-8.3 1.7,-1.9 5,-4.4 7.2,-5.7 2.2,-1.3 6,-2.9 8.5,-3.6 3.3,-0.9 14.2,-1.2 76.5,-0.8 l -5.5,-3.7 c -3.1,-2 -7.2,-5.3 -9.3,-7.3 -2,-2 -4.8,-5.6 -6.2,-8.1 -1.3,-2.5 -3.1,-7.2 -4,-10.5 -0.8,-3.3 -1.5,-9.1 -1.5,-13 0,-3.8 0.6,-9.6 1.5,-12.7 0.8,-3.2 2.8,-8.4 4.4,-11.5 1.6,-3.2 5.3,-9.2 8.2,-13.3 2.9,-4.1 9.5,-11.8 14.6,-17 z m -109.1,2.5 c 3,0 8.7,0.7 12.5,1.5 3.9,0.8 11.1,3.5 16,6 5,2.4 11.5,6.6 14.4,9.2 3,2.7 7.5,7.7 10,11.3 2.5,3.6 6,9.9 7.8,14 2.9,6.9 3.1,8.1 2.6,15.5 -0.4,5.6 0,10.3 1.1,15.5 0.9,4.1 2.7,9.8 4,12.5 1.3,2.8 3.8,6.8 9.1,12.8 l -20,-0.6 c -12.9,-0.4 -21.6,-1.1 -24.5,-2 -2.4,-0.8 -6.5,-2.5 -9,-3.7 -2.4,-1.3 -6.6,-4.6 -9.3,-7.4 -2.7,-2.8 -6.2,-7.7 -7.8,-10.8 -1.6,-3.2 -3.8,-9.1 -4.9,-13 -1.3,-4.7 -2.3,-13.2 -3,-23.8 -0.7,-12.3 -1.7,-19 -3.7,-26.2 -1.4,-5.4 -2.2,-10 -1.8,-10.3 0.5,-0.3 3.4,-0.5 6.5,-0.5 z m 219.3,0.1 c 2.7,-0.1 3.9,0.4 4.4,1.7 0.4,0.9 -0.1,5.5 -1.1,10.2 -1,4.7 -2.1,15.9 -2.6,25 -0.4,9.8 -1.4,19.1 -2.5,23 -0.9,3.6 -3,9.2 -4.7,12.5 -1.7,3.3 -5.6,8.6 -8.7,11.9 -3,3.2 -7.7,6.9 -10.3,8.2 -2.6,1.3 -6.7,2.8 -9,3.3 -2.3,0.5 -12.7,1.2 -23,1.5 -10.3,0.3 -18.8,0.4 -18.8,0.1 0,-0.3 1.5,-2.6 3.3,-5.2 1.8,-2.7 4.6,-8.6 6.2,-13.3 2.4,-7.2 2.8,-10 2.7,-18.5 0,-7.7 0.4,-11.5 2.1,-16.5 1.2,-3.6 4.2,-9.6 6.8,-13.5 2.6,-3.8 7.1,-9.2 10.1,-11.9 2.9,-2.6 8.3,-6.6 11.8,-8.7 3.6,-2.1 8.6,-4.6 11,-5.5 2.5,-0.8 7.7,-2.2 11.5,-2.9 3.9,-0.7 8.7,-1.4 10.8,-1.4 z m -691.3,-0.37123 c 6,0.4 11.9,1.3 16,2.7 3.6,1.2 9.7,4.1 13.5,6.3 4.1,2.4 10.6,7.7 15.6,12.7 6.5,6.5 9.5,10.5 12.6,16.6 2.3,4.5 4.8,11.5 5.7,16 1,4.4 2.4,11.2 3.3,15 0.9,3.9 2.8,9.5 4.4,12.5 1.5,3 4.5,7.3 10.4,13.4 l -20,-0.7 c -12.6,-0.4 -22.3,-1.2 -26.5,-2.2 -3.5,-0.9 -8.7,-2.8 -11.3,-4.3 -2.7,-1.5 -7,-4.9 -9.6,-7.7 -2.6,-2.7 -5.9,-7.2 -7.3,-10 -1.4,-2.7 -3.5,-8.1 -4.6,-12 -1.2,-3.8 -3,-13.7 -4.2,-22 -1.1,-8.2 -2.8,-17.7 -3.6,-21 -0.9,-3.3 -2.4,-7.7 -3.5,-9.7 -1,-2.1 -1.6,-4.3 -1.2,-4.9 0.5,-0.8 3.8,-1 10.3,-0.7 z m 207.3,-0.1 c 3.6,-0.1 4.7,0.3 4.7,1.4 0,0.8 -0.7,3 -1.6,4.8 -0.9,1.7 -2.2,6.5 -3,10.5 -0.7,3.9 -1.4,9.8 -1.4,13 0,3.1 -0.6,9.8 -1.4,14.7 -0.8,5 -2.2,11.5 -3.1,14.5 -0.9,3 -3.3,8.6 -5.3,12.4 -2.2,4.1 -5.9,9 -9.2,12 -3.4,3.2 -7.7,6 -11.2,7.4 -3.2,1.2 -8.8,2.7 -12.5,3.3 -3.7,0.6 -14.6,1.4 -24.3,1.8 -9.6,0.4 -17.6,0.6 -17.7,0.4 -0.1,-0.2 1,-2 2.6,-4 1.5,-2.1 3.7,-5.4 4.9,-7.3 1.2,-1.9 5.5,-13.6 9.7,-26 4.1,-12.4 9,-24.9 10.8,-27.8 1.8,-3 5.9,-8 9.2,-11.1 3.3,-3.1 9,-7.3 12.5,-9.3 3.6,-2.1 9.9,-4.9 14,-6.3 4.2,-1.4 9.8,-3 12.5,-3.4 2.8,-0.5 7.2,-0.9 9.8,-1 z m -105.5,103 c 77.4,-0.1 78.3,-0.1 84,2 4.2,1.6 7.3,3.7 11.5,8 4.3,4.5 6.1,7.2 7.2,11.2 0.9,2.8 1.5,8.1 1.5,11.7 0,4.8 -0.5,7 -1.7,8.3 -1.7,1.7 -7.2,1.8 -103.3,1.8 -81.7,0 -101.7,-0.3 -102.7,-1.3 -0.7,-0.7 -1.5,-3.5 -1.9,-6.3 -0.4,-2.9 -0.1,-7.3 0.6,-10.5 0.7,-3 2.3,-7.3 3.5,-9.5 1.2,-2.2 4.2,-5.7 6.6,-7.8 2.6,-2.2 6.9,-4.6 10.4,-5.7 5.7,-1.8 10.3,-1.9 84.3,-1.9 z m 1052.1712,0.49986 5.5,2.6 c 3.1,1.4 7.1,3.9 9,5.6 2,1.7 4.9,5.5 6.5,8.4 2.2,4.2 3,7.1 3.4,12.9 0.4,5.9 0.1,8.1 -2.9,13 l -213.49997,0.1 -2,-2.2 c -1.6,-1.7 -1.9,-3.4 -1.8,-8.8 0.1,-3.9 0.9,-8.9 2.2,-12.1 1.4,-3.9 3.6,-7 7.6,-10.7 4.2,-4 7.1,-5.8 11.8,-7.3 6,-1.8 9.3,-1.9 174.19997,-1.5 z m 396.0327,-305.59131 c 5.5,2.7 13.9,7.8 18.5,11.3 4.7,3.5 11.6,9.7 15.4,13.8 3.8,4.1 10.2,12.4 14.2,18.4 4,6.1 8.9,14.4 10.8,18.5 1.9,4.1 5.1,12.9 7,19.5 1.9,6.6 4.4,17.6 5.6,24.5 1.3,7.4 2.4,19.8 2.9,30.2 0.3,9.7 0.7,17.6 0.9,17.5 0.1,-0.1 0.7,-6.3 1.3,-13.7 0.9,-10.1 0.9,-16.8 0,-26.5 -0.6,-7.1 -1.8,-17 -2.7,-22 -0.8,-4.9 -2.7,-12.6 -4.1,-17 -1.4,-4.4 -4.4,-11.8 -6.8,-16.5 -2.3,-4.7 -7,-12.7 -10.4,-17.7 -3.3,-5.1 -9.8,-13.2 -14.3,-17.9 -4.5,-4.8 -10.7,-10.3 -13.8,-12.4 -3,-2 -8.8,-5.4 -13,-7.5 -4.1,-2.1 -9.9,-4.6 -13,-5.7 -3,-1 -6.1,-1.8 -7,-1.8 -0.8,0 3,2.2 8.5,5 z m -72.8,46.3 c -1.9,1.9 -2.6,3.7 -2.6,6.7 0,2.2 0.3,4 0.7,4 0.4,0 2.5,-1 4.7,-2.3 2.2,-1.2 4.7,-3.7 5.7,-5.4 1,-1.8 1.7,-3.5 1.6,-3.8 -0.1,-0.3 -1.9,-0.8 -3.9,-1.1 -3,-0.5 -4,-0.2 -6.2,1.9 z" />
    </g>
  </g>
</svg>
